<mxfile host="app.diagrams.net" agent="Mozilla/5.0 (Windows NT 10.0; Win64; x64) AppleWebKit/537.36 (KHTML, like Gecko) Chrome/133.0.0.0 Safari/537.36" version="26.0.16">
  <diagram name="Page-1" id="xzcKygWpIpgwdBSVynpc">
    <mxGraphModel dx="1050" dy="1622" grid="1" gridSize="10" guides="1" tooltips="1" connect="1" arrows="1" fold="1" page="1" pageScale="1" pageWidth="850" pageHeight="1100" math="0" shadow="0">
      <root>
        <mxCell id="0" />
        <mxCell id="1" parent="0" />
        <mxCell id="xuCqlQGLWo-v2Zik0cqL-1" value="Student" style="shape=table;startSize=30;container=1;collapsible=1;childLayout=tableLayout;fixedRows=1;rowLines=0;fontStyle=1;align=center;resizeLast=1;html=1;" vertex="1" parent="1">
          <mxGeometry x="10" y="-280" width="330" height="590" as="geometry" />
        </mxCell>
        <mxCell id="xuCqlQGLWo-v2Zik0cqL-2" value="" style="shape=tableRow;horizontal=0;startSize=0;swimlaneHead=0;swimlaneBody=0;fillColor=none;collapsible=0;dropTarget=0;points=[[0,0.5],[1,0.5]];portConstraint=eastwest;top=0;left=0;right=0;bottom=1;" vertex="1" parent="xuCqlQGLWo-v2Zik0cqL-1">
          <mxGeometry y="30" width="330" height="30" as="geometry" />
        </mxCell>
        <mxCell id="xuCqlQGLWo-v2Zik0cqL-3" value="PK" style="shape=partialRectangle;connectable=0;fillColor=none;top=0;left=0;bottom=0;right=0;fontStyle=1;overflow=hidden;whiteSpace=wrap;html=1;" vertex="1" parent="xuCqlQGLWo-v2Zik0cqL-2">
          <mxGeometry width="30" height="30" as="geometry">
            <mxRectangle width="30" height="30" as="alternateBounds" />
          </mxGeometry>
        </mxCell>
        <mxCell id="xuCqlQGLWo-v2Zik0cqL-4" value="_id" style="shape=partialRectangle;connectable=0;fillColor=none;top=0;left=0;bottom=0;right=0;align=left;spacingLeft=6;fontStyle=5;overflow=hidden;whiteSpace=wrap;html=1;" vertex="1" parent="xuCqlQGLWo-v2Zik0cqL-2">
          <mxGeometry x="30" width="150" height="30" as="geometry">
            <mxRectangle width="150" height="30" as="alternateBounds" />
          </mxGeometry>
        </mxCell>
        <mxCell id="xuCqlQGLWo-v2Zik0cqL-22" value="ObjectId" style="shape=partialRectangle;connectable=0;fillColor=none;top=0;left=0;bottom=0;right=0;align=left;spacingLeft=6;fontStyle=5;overflow=hidden;whiteSpace=wrap;html=1;" vertex="1" parent="xuCqlQGLWo-v2Zik0cqL-2">
          <mxGeometry x="180" width="150" height="30" as="geometry">
            <mxRectangle width="150" height="30" as="alternateBounds" />
          </mxGeometry>
        </mxCell>
        <mxCell id="xuCqlQGLWo-v2Zik0cqL-5" value="" style="shape=tableRow;horizontal=0;startSize=0;swimlaneHead=0;swimlaneBody=0;fillColor=none;collapsible=0;dropTarget=0;points=[[0,0.5],[1,0.5]];portConstraint=eastwest;top=0;left=0;right=0;bottom=0;strokeWidth=12;" vertex="1" parent="xuCqlQGLWo-v2Zik0cqL-1">
          <mxGeometry y="60" width="330" height="30" as="geometry" />
        </mxCell>
        <mxCell id="xuCqlQGLWo-v2Zik0cqL-6" value="" style="shape=partialRectangle;connectable=0;fillColor=none;top=0;left=0;bottom=0;right=0;editable=1;overflow=hidden;whiteSpace=wrap;html=1;" vertex="1" parent="xuCqlQGLWo-v2Zik0cqL-5">
          <mxGeometry width="30" height="30" as="geometry">
            <mxRectangle width="30" height="30" as="alternateBounds" />
          </mxGeometry>
        </mxCell>
        <mxCell id="xuCqlQGLWo-v2Zik0cqL-7" value="id :" style="shape=partialRectangle;connectable=0;fillColor=none;top=0;left=0;bottom=0;right=0;align=left;spacingLeft=6;overflow=hidden;whiteSpace=wrap;html=1;" vertex="1" parent="xuCqlQGLWo-v2Zik0cqL-5">
          <mxGeometry x="30" width="150" height="30" as="geometry">
            <mxRectangle width="150" height="30" as="alternateBounds" />
          </mxGeometry>
        </mxCell>
        <mxCell id="xuCqlQGLWo-v2Zik0cqL-23" value="String" style="shape=partialRectangle;connectable=0;fillColor=none;top=0;left=0;bottom=0;right=0;align=left;spacingLeft=6;overflow=hidden;whiteSpace=wrap;html=1;" vertex="1" parent="xuCqlQGLWo-v2Zik0cqL-5">
          <mxGeometry x="180" width="150" height="30" as="geometry">
            <mxRectangle width="150" height="30" as="alternateBounds" />
          </mxGeometry>
        </mxCell>
        <mxCell id="xuCqlQGLWo-v2Zik0cqL-8" value="" style="shape=tableRow;horizontal=0;startSize=0;swimlaneHead=0;swimlaneBody=0;fillColor=none;collapsible=0;dropTarget=0;points=[[0,0.5],[1,0.5]];portConstraint=eastwest;top=0;left=0;right=0;bottom=0;" vertex="1" parent="xuCqlQGLWo-v2Zik0cqL-1">
          <mxGeometry y="90" width="330" height="30" as="geometry" />
        </mxCell>
        <mxCell id="xuCqlQGLWo-v2Zik0cqL-9" value="FK" style="shape=partialRectangle;connectable=0;fillColor=none;top=0;left=0;bottom=0;right=0;editable=1;overflow=hidden;whiteSpace=wrap;html=1;" vertex="1" parent="xuCqlQGLWo-v2Zik0cqL-8">
          <mxGeometry width="30" height="30" as="geometry">
            <mxRectangle width="30" height="30" as="alternateBounds" />
          </mxGeometry>
        </mxCell>
        <mxCell id="xuCqlQGLWo-v2Zik0cqL-10" value="user" style="shape=partialRectangle;connectable=0;fillColor=none;top=0;left=0;bottom=0;right=0;align=left;spacingLeft=6;overflow=hidden;whiteSpace=wrap;html=1;" vertex="1" parent="xuCqlQGLWo-v2Zik0cqL-8">
          <mxGeometry x="30" width="150" height="30" as="geometry">
            <mxRectangle width="150" height="30" as="alternateBounds" />
          </mxGeometry>
        </mxCell>
        <mxCell id="xuCqlQGLWo-v2Zik0cqL-24" value="ObjectId" style="shape=partialRectangle;connectable=0;fillColor=none;top=0;left=0;bottom=0;right=0;align=left;spacingLeft=6;overflow=hidden;whiteSpace=wrap;html=1;" vertex="1" parent="xuCqlQGLWo-v2Zik0cqL-8">
          <mxGeometry x="180" width="150" height="30" as="geometry">
            <mxRectangle width="150" height="30" as="alternateBounds" />
          </mxGeometry>
        </mxCell>
        <mxCell id="xuCqlQGLWo-v2Zik0cqL-30" value="" style="shape=tableRow;horizontal=0;startSize=0;swimlaneHead=0;swimlaneBody=0;fillColor=none;collapsible=0;dropTarget=0;points=[[0,0.5],[1,0.5]];portConstraint=eastwest;top=0;left=0;right=0;bottom=0;" vertex="1" parent="xuCqlQGLWo-v2Zik0cqL-1">
          <mxGeometry y="120" width="330" height="30" as="geometry" />
        </mxCell>
        <mxCell id="xuCqlQGLWo-v2Zik0cqL-31" value="" style="shape=partialRectangle;connectable=0;fillColor=none;top=0;left=0;bottom=0;right=0;editable=1;overflow=hidden;whiteSpace=wrap;html=1;" vertex="1" parent="xuCqlQGLWo-v2Zik0cqL-30">
          <mxGeometry width="30" height="30" as="geometry">
            <mxRectangle width="30" height="30" as="alternateBounds" />
          </mxGeometry>
        </mxCell>
        <mxCell id="xuCqlQGLWo-v2Zik0cqL-32" value="name" style="shape=partialRectangle;connectable=0;fillColor=none;top=0;left=0;bottom=0;right=0;align=left;spacingLeft=6;overflow=hidden;whiteSpace=wrap;html=1;" vertex="1" parent="xuCqlQGLWo-v2Zik0cqL-30">
          <mxGeometry x="30" width="150" height="30" as="geometry">
            <mxRectangle width="150" height="30" as="alternateBounds" />
          </mxGeometry>
        </mxCell>
        <mxCell id="xuCqlQGLWo-v2Zik0cqL-33" value="&lt;div&gt;Object&lt;/div&gt;" style="shape=partialRectangle;connectable=0;fillColor=none;top=0;left=0;bottom=0;right=0;align=left;spacingLeft=6;overflow=hidden;whiteSpace=wrap;html=1;" vertex="1" parent="xuCqlQGLWo-v2Zik0cqL-30">
          <mxGeometry x="180" width="150" height="30" as="geometry">
            <mxRectangle width="150" height="30" as="alternateBounds" />
          </mxGeometry>
        </mxCell>
        <mxCell id="xuCqlQGLWo-v2Zik0cqL-34" value="" style="shape=tableRow;horizontal=0;startSize=0;swimlaneHead=0;swimlaneBody=0;fillColor=none;collapsible=0;dropTarget=0;points=[[0,0.5],[1,0.5]];portConstraint=eastwest;top=0;left=0;right=0;bottom=0;" vertex="1" parent="xuCqlQGLWo-v2Zik0cqL-1">
          <mxGeometry y="150" width="330" height="30" as="geometry" />
        </mxCell>
        <mxCell id="xuCqlQGLWo-v2Zik0cqL-35" value="" style="shape=partialRectangle;connectable=0;fillColor=none;top=0;left=0;bottom=0;right=0;editable=1;overflow=hidden;whiteSpace=wrap;html=1;" vertex="1" parent="xuCqlQGLWo-v2Zik0cqL-34">
          <mxGeometry width="30" height="30" as="geometry">
            <mxRectangle width="30" height="30" as="alternateBounds" />
          </mxGeometry>
        </mxCell>
        <mxCell id="xuCqlQGLWo-v2Zik0cqL-36" value="gender" style="shape=partialRectangle;connectable=0;fillColor=none;top=0;left=0;bottom=0;right=0;align=left;spacingLeft=6;overflow=hidden;whiteSpace=wrap;html=1;" vertex="1" parent="xuCqlQGLWo-v2Zik0cqL-34">
          <mxGeometry x="30" width="150" height="30" as="geometry">
            <mxRectangle width="150" height="30" as="alternateBounds" />
          </mxGeometry>
        </mxCell>
        <mxCell id="xuCqlQGLWo-v2Zik0cqL-37" value="String" style="shape=partialRectangle;connectable=0;fillColor=none;top=0;left=0;bottom=0;right=0;align=left;spacingLeft=6;overflow=hidden;whiteSpace=wrap;html=1;" vertex="1" parent="xuCqlQGLWo-v2Zik0cqL-34">
          <mxGeometry x="180" width="150" height="30" as="geometry">
            <mxRectangle width="150" height="30" as="alternateBounds" />
          </mxGeometry>
        </mxCell>
        <mxCell id="xuCqlQGLWo-v2Zik0cqL-38" value="" style="shape=tableRow;horizontal=0;startSize=0;swimlaneHead=0;swimlaneBody=0;fillColor=none;collapsible=0;dropTarget=0;points=[[0,0.5],[1,0.5]];portConstraint=eastwest;top=0;left=0;right=0;bottom=0;" vertex="1" parent="xuCqlQGLWo-v2Zik0cqL-1">
          <mxGeometry y="180" width="330" height="30" as="geometry" />
        </mxCell>
        <mxCell id="xuCqlQGLWo-v2Zik0cqL-39" value="" style="shape=partialRectangle;connectable=0;fillColor=none;top=0;left=0;bottom=0;right=0;editable=1;overflow=hidden;whiteSpace=wrap;html=1;" vertex="1" parent="xuCqlQGLWo-v2Zik0cqL-38">
          <mxGeometry width="30" height="30" as="geometry">
            <mxRectangle width="30" height="30" as="alternateBounds" />
          </mxGeometry>
        </mxCell>
        <mxCell id="xuCqlQGLWo-v2Zik0cqL-40" value="dateOfBirth" style="shape=partialRectangle;connectable=0;fillColor=none;top=0;left=0;bottom=0;right=0;align=left;spacingLeft=6;overflow=hidden;whiteSpace=wrap;html=1;" vertex="1" parent="xuCqlQGLWo-v2Zik0cqL-38">
          <mxGeometry x="30" width="150" height="30" as="geometry">
            <mxRectangle width="150" height="30" as="alternateBounds" />
          </mxGeometry>
        </mxCell>
        <mxCell id="xuCqlQGLWo-v2Zik0cqL-41" value="Date" style="shape=partialRectangle;connectable=0;fillColor=none;top=0;left=0;bottom=0;right=0;align=left;spacingLeft=6;overflow=hidden;whiteSpace=wrap;html=1;" vertex="1" parent="xuCqlQGLWo-v2Zik0cqL-38">
          <mxGeometry x="180" width="150" height="30" as="geometry">
            <mxRectangle width="150" height="30" as="alternateBounds" />
          </mxGeometry>
        </mxCell>
        <mxCell id="xuCqlQGLWo-v2Zik0cqL-54" value="" style="shape=tableRow;horizontal=0;startSize=0;swimlaneHead=0;swimlaneBody=0;fillColor=none;collapsible=0;dropTarget=0;points=[[0,0.5],[1,0.5]];portConstraint=eastwest;top=0;left=0;right=0;bottom=0;" vertex="1" parent="xuCqlQGLWo-v2Zik0cqL-1">
          <mxGeometry y="210" width="330" height="30" as="geometry" />
        </mxCell>
        <mxCell id="xuCqlQGLWo-v2Zik0cqL-55" value="" style="shape=partialRectangle;connectable=0;fillColor=none;top=0;left=0;bottom=0;right=0;editable=1;overflow=hidden;whiteSpace=wrap;html=1;" vertex="1" parent="xuCqlQGLWo-v2Zik0cqL-54">
          <mxGeometry width="30" height="30" as="geometry">
            <mxRectangle width="30" height="30" as="alternateBounds" />
          </mxGeometry>
        </mxCell>
        <mxCell id="xuCqlQGLWo-v2Zik0cqL-56" value="email" style="shape=partialRectangle;connectable=0;fillColor=none;top=0;left=0;bottom=0;right=0;align=left;spacingLeft=6;overflow=hidden;whiteSpace=wrap;html=1;" vertex="1" parent="xuCqlQGLWo-v2Zik0cqL-54">
          <mxGeometry x="30" width="150" height="30" as="geometry">
            <mxRectangle width="150" height="30" as="alternateBounds" />
          </mxGeometry>
        </mxCell>
        <mxCell id="xuCqlQGLWo-v2Zik0cqL-57" value="String" style="shape=partialRectangle;connectable=0;fillColor=none;top=0;left=0;bottom=0;right=0;align=left;spacingLeft=6;overflow=hidden;whiteSpace=wrap;html=1;" vertex="1" parent="xuCqlQGLWo-v2Zik0cqL-54">
          <mxGeometry x="180" width="150" height="30" as="geometry">
            <mxRectangle width="150" height="30" as="alternateBounds" />
          </mxGeometry>
        </mxCell>
        <mxCell id="xuCqlQGLWo-v2Zik0cqL-58" value="" style="shape=tableRow;horizontal=0;startSize=0;swimlaneHead=0;swimlaneBody=0;fillColor=none;collapsible=0;dropTarget=0;points=[[0,0.5],[1,0.5]];portConstraint=eastwest;top=0;left=0;right=0;bottom=0;" vertex="1" parent="xuCqlQGLWo-v2Zik0cqL-1">
          <mxGeometry y="240" width="330" height="30" as="geometry" />
        </mxCell>
        <mxCell id="xuCqlQGLWo-v2Zik0cqL-59" value="" style="shape=partialRectangle;connectable=0;fillColor=none;top=0;left=0;bottom=0;right=0;editable=1;overflow=hidden;whiteSpace=wrap;html=1;" vertex="1" parent="xuCqlQGLWo-v2Zik0cqL-58">
          <mxGeometry width="30" height="30" as="geometry">
            <mxRectangle width="30" height="30" as="alternateBounds" />
          </mxGeometry>
        </mxCell>
        <mxCell id="xuCqlQGLWo-v2Zik0cqL-60" value="contactNo" style="shape=partialRectangle;connectable=0;fillColor=none;top=0;left=0;bottom=0;right=0;align=left;spacingLeft=6;overflow=hidden;whiteSpace=wrap;html=1;" vertex="1" parent="xuCqlQGLWo-v2Zik0cqL-58">
          <mxGeometry x="30" width="150" height="30" as="geometry">
            <mxRectangle width="150" height="30" as="alternateBounds" />
          </mxGeometry>
        </mxCell>
        <mxCell id="xuCqlQGLWo-v2Zik0cqL-61" value="String" style="shape=partialRectangle;connectable=0;fillColor=none;top=0;left=0;bottom=0;right=0;align=left;spacingLeft=6;overflow=hidden;whiteSpace=wrap;html=1;" vertex="1" parent="xuCqlQGLWo-v2Zik0cqL-58">
          <mxGeometry x="180" width="150" height="30" as="geometry">
            <mxRectangle width="150" height="30" as="alternateBounds" />
          </mxGeometry>
        </mxCell>
        <mxCell id="xuCqlQGLWo-v2Zik0cqL-62" value="" style="shape=tableRow;horizontal=0;startSize=0;swimlaneHead=0;swimlaneBody=0;fillColor=none;collapsible=0;dropTarget=0;points=[[0,0.5],[1,0.5]];portConstraint=eastwest;top=0;left=0;right=0;bottom=0;" vertex="1" parent="xuCqlQGLWo-v2Zik0cqL-1">
          <mxGeometry y="270" width="330" height="30" as="geometry" />
        </mxCell>
        <mxCell id="xuCqlQGLWo-v2Zik0cqL-63" value="" style="shape=partialRectangle;connectable=0;fillColor=none;top=0;left=0;bottom=0;right=0;editable=1;overflow=hidden;whiteSpace=wrap;html=1;" vertex="1" parent="xuCqlQGLWo-v2Zik0cqL-62">
          <mxGeometry width="30" height="30" as="geometry">
            <mxRectangle width="30" height="30" as="alternateBounds" />
          </mxGeometry>
        </mxCell>
        <mxCell id="xuCqlQGLWo-v2Zik0cqL-64" value="emergencyContactNo" style="shape=partialRectangle;connectable=0;fillColor=none;top=0;left=0;bottom=0;right=0;align=left;spacingLeft=6;overflow=hidden;whiteSpace=wrap;html=1;" vertex="1" parent="xuCqlQGLWo-v2Zik0cqL-62">
          <mxGeometry x="30" width="150" height="30" as="geometry">
            <mxRectangle width="150" height="30" as="alternateBounds" />
          </mxGeometry>
        </mxCell>
        <mxCell id="xuCqlQGLWo-v2Zik0cqL-65" value="String" style="shape=partialRectangle;connectable=0;fillColor=none;top=0;left=0;bottom=0;right=0;align=left;spacingLeft=6;overflow=hidden;whiteSpace=wrap;html=1;" vertex="1" parent="xuCqlQGLWo-v2Zik0cqL-62">
          <mxGeometry x="180" width="150" height="30" as="geometry">
            <mxRectangle width="150" height="30" as="alternateBounds" />
          </mxGeometry>
        </mxCell>
        <mxCell id="xuCqlQGLWo-v2Zik0cqL-66" value="" style="shape=tableRow;horizontal=0;startSize=0;swimlaneHead=0;swimlaneBody=0;fillColor=none;collapsible=0;dropTarget=0;points=[[0,0.5],[1,0.5]];portConstraint=eastwest;top=0;left=0;right=0;bottom=0;" vertex="1" parent="xuCqlQGLWo-v2Zik0cqL-1">
          <mxGeometry y="300" width="330" height="30" as="geometry" />
        </mxCell>
        <mxCell id="xuCqlQGLWo-v2Zik0cqL-67" value="" style="shape=partialRectangle;connectable=0;fillColor=none;top=0;left=0;bottom=0;right=0;editable=1;overflow=hidden;whiteSpace=wrap;html=1;" vertex="1" parent="xuCqlQGLWo-v2Zik0cqL-66">
          <mxGeometry width="30" height="30" as="geometry">
            <mxRectangle width="30" height="30" as="alternateBounds" />
          </mxGeometry>
        </mxCell>
        <mxCell id="xuCqlQGLWo-v2Zik0cqL-68" value="presentAddress" style="shape=partialRectangle;connectable=0;fillColor=none;top=0;left=0;bottom=0;right=0;align=left;spacingLeft=6;overflow=hidden;whiteSpace=wrap;html=1;" vertex="1" parent="xuCqlQGLWo-v2Zik0cqL-66">
          <mxGeometry x="30" width="150" height="30" as="geometry">
            <mxRectangle width="150" height="30" as="alternateBounds" />
          </mxGeometry>
        </mxCell>
        <mxCell id="xuCqlQGLWo-v2Zik0cqL-69" value="String" style="shape=partialRectangle;connectable=0;fillColor=none;top=0;left=0;bottom=0;right=0;align=left;spacingLeft=6;overflow=hidden;whiteSpace=wrap;html=1;" vertex="1" parent="xuCqlQGLWo-v2Zik0cqL-66">
          <mxGeometry x="180" width="150" height="30" as="geometry">
            <mxRectangle width="150" height="30" as="alternateBounds" />
          </mxGeometry>
        </mxCell>
        <mxCell id="xuCqlQGLWo-v2Zik0cqL-70" value="" style="shape=tableRow;horizontal=0;startSize=0;swimlaneHead=0;swimlaneBody=0;fillColor=none;collapsible=0;dropTarget=0;points=[[0,0.5],[1,0.5]];portConstraint=eastwest;top=0;left=0;right=0;bottom=0;" vertex="1" parent="xuCqlQGLWo-v2Zik0cqL-1">
          <mxGeometry y="330" width="330" height="30" as="geometry" />
        </mxCell>
        <mxCell id="xuCqlQGLWo-v2Zik0cqL-71" value="" style="shape=partialRectangle;connectable=0;fillColor=none;top=0;left=0;bottom=0;right=0;editable=1;overflow=hidden;whiteSpace=wrap;html=1;" vertex="1" parent="xuCqlQGLWo-v2Zik0cqL-70">
          <mxGeometry width="30" height="30" as="geometry">
            <mxRectangle width="30" height="30" as="alternateBounds" />
          </mxGeometry>
        </mxCell>
        <mxCell id="xuCqlQGLWo-v2Zik0cqL-72" value="permanentAddress" style="shape=partialRectangle;connectable=0;fillColor=none;top=0;left=0;bottom=0;right=0;align=left;spacingLeft=6;overflow=hidden;whiteSpace=wrap;html=1;" vertex="1" parent="xuCqlQGLWo-v2Zik0cqL-70">
          <mxGeometry x="30" width="150" height="30" as="geometry">
            <mxRectangle width="150" height="30" as="alternateBounds" />
          </mxGeometry>
        </mxCell>
        <mxCell id="xuCqlQGLWo-v2Zik0cqL-73" value="String" style="shape=partialRectangle;connectable=0;fillColor=none;top=0;left=0;bottom=0;right=0;align=left;spacingLeft=6;overflow=hidden;whiteSpace=wrap;html=1;" vertex="1" parent="xuCqlQGLWo-v2Zik0cqL-70">
          <mxGeometry x="180" width="150" height="30" as="geometry">
            <mxRectangle width="150" height="30" as="alternateBounds" />
          </mxGeometry>
        </mxCell>
        <mxCell id="xuCqlQGLWo-v2Zik0cqL-74" value="" style="shape=tableRow;horizontal=0;startSize=0;swimlaneHead=0;swimlaneBody=0;fillColor=none;collapsible=0;dropTarget=0;points=[[0,0.5],[1,0.5]];portConstraint=eastwest;top=0;left=0;right=0;bottom=0;" vertex="1" parent="xuCqlQGLWo-v2Zik0cqL-1">
          <mxGeometry y="360" width="330" height="30" as="geometry" />
        </mxCell>
        <mxCell id="xuCqlQGLWo-v2Zik0cqL-75" value="" style="shape=partialRectangle;connectable=0;fillColor=none;top=0;left=0;bottom=0;right=0;editable=1;overflow=hidden;whiteSpace=wrap;html=1;" vertex="1" parent="xuCqlQGLWo-v2Zik0cqL-74">
          <mxGeometry width="30" height="30" as="geometry">
            <mxRectangle width="30" height="30" as="alternateBounds" />
          </mxGeometry>
        </mxCell>
        <mxCell id="xuCqlQGLWo-v2Zik0cqL-76" value="guardian" style="shape=partialRectangle;connectable=0;fillColor=none;top=0;left=0;bottom=0;right=0;align=left;spacingLeft=6;overflow=hidden;whiteSpace=wrap;html=1;" vertex="1" parent="xuCqlQGLWo-v2Zik0cqL-74">
          <mxGeometry x="30" width="150" height="30" as="geometry">
            <mxRectangle width="150" height="30" as="alternateBounds" />
          </mxGeometry>
        </mxCell>
        <mxCell id="xuCqlQGLWo-v2Zik0cqL-77" value="Object" style="shape=partialRectangle;connectable=0;fillColor=none;top=0;left=0;bottom=0;right=0;align=left;spacingLeft=6;overflow=hidden;whiteSpace=wrap;html=1;" vertex="1" parent="xuCqlQGLWo-v2Zik0cqL-74">
          <mxGeometry x="180" width="150" height="30" as="geometry">
            <mxRectangle width="150" height="30" as="alternateBounds" />
          </mxGeometry>
        </mxCell>
        <mxCell id="xuCqlQGLWo-v2Zik0cqL-78" value="" style="shape=tableRow;horizontal=0;startSize=0;swimlaneHead=0;swimlaneBody=0;fillColor=none;collapsible=0;dropTarget=0;points=[[0,0.5],[1,0.5]];portConstraint=eastwest;top=0;left=0;right=0;bottom=0;" vertex="1" parent="xuCqlQGLWo-v2Zik0cqL-1">
          <mxGeometry y="390" width="330" height="20" as="geometry" />
        </mxCell>
        <mxCell id="xuCqlQGLWo-v2Zik0cqL-79" value="" style="shape=partialRectangle;connectable=0;fillColor=none;top=0;left=0;bottom=0;right=0;editable=1;overflow=hidden;whiteSpace=wrap;html=1;" vertex="1" parent="xuCqlQGLWo-v2Zik0cqL-78">
          <mxGeometry width="30" height="20" as="geometry">
            <mxRectangle width="30" height="20" as="alternateBounds" />
          </mxGeometry>
        </mxCell>
        <mxCell id="xuCqlQGLWo-v2Zik0cqL-80" value="localGuardian" style="shape=partialRectangle;connectable=0;fillColor=none;top=0;left=0;bottom=0;right=0;align=left;spacingLeft=6;overflow=hidden;whiteSpace=wrap;html=1;" vertex="1" parent="xuCqlQGLWo-v2Zik0cqL-78">
          <mxGeometry x="30" width="150" height="20" as="geometry">
            <mxRectangle width="150" height="20" as="alternateBounds" />
          </mxGeometry>
        </mxCell>
        <mxCell id="xuCqlQGLWo-v2Zik0cqL-81" value="Object" style="shape=partialRectangle;connectable=0;fillColor=none;top=0;left=0;bottom=0;right=0;align=left;spacingLeft=6;overflow=hidden;whiteSpace=wrap;html=1;" vertex="1" parent="xuCqlQGLWo-v2Zik0cqL-78">
          <mxGeometry x="180" width="150" height="20" as="geometry">
            <mxRectangle width="150" height="20" as="alternateBounds" />
          </mxGeometry>
        </mxCell>
        <mxCell id="xuCqlQGLWo-v2Zik0cqL-82" value="" style="shape=tableRow;horizontal=0;startSize=0;swimlaneHead=0;swimlaneBody=0;fillColor=none;collapsible=0;dropTarget=0;points=[[0,0.5],[1,0.5]];portConstraint=eastwest;top=0;left=0;right=0;bottom=0;" vertex="1" parent="xuCqlQGLWo-v2Zik0cqL-1">
          <mxGeometry y="410" width="330" height="30" as="geometry" />
        </mxCell>
        <mxCell id="xuCqlQGLWo-v2Zik0cqL-83" value="" style="shape=partialRectangle;connectable=0;fillColor=none;top=0;left=0;bottom=0;right=0;editable=1;overflow=hidden;whiteSpace=wrap;html=1;" vertex="1" parent="xuCqlQGLWo-v2Zik0cqL-82">
          <mxGeometry width="30" height="30" as="geometry">
            <mxRectangle width="30" height="30" as="alternateBounds" />
          </mxGeometry>
        </mxCell>
        <mxCell id="xuCqlQGLWo-v2Zik0cqL-84" value="profileImage" style="shape=partialRectangle;connectable=0;fillColor=none;top=0;left=0;bottom=0;right=0;align=left;spacingLeft=6;overflow=hidden;whiteSpace=wrap;html=1;" vertex="1" parent="xuCqlQGLWo-v2Zik0cqL-82">
          <mxGeometry x="30" width="150" height="30" as="geometry">
            <mxRectangle width="150" height="30" as="alternateBounds" />
          </mxGeometry>
        </mxCell>
        <mxCell id="xuCqlQGLWo-v2Zik0cqL-85" value="String" style="shape=partialRectangle;connectable=0;fillColor=none;top=0;left=0;bottom=0;right=0;align=left;spacingLeft=6;overflow=hidden;whiteSpace=wrap;html=1;" vertex="1" parent="xuCqlQGLWo-v2Zik0cqL-82">
          <mxGeometry x="180" width="150" height="30" as="geometry">
            <mxRectangle width="150" height="30" as="alternateBounds" />
          </mxGeometry>
        </mxCell>
        <mxCell id="xuCqlQGLWo-v2Zik0cqL-86" value="" style="shape=tableRow;horizontal=0;startSize=0;swimlaneHead=0;swimlaneBody=0;fillColor=none;collapsible=0;dropTarget=0;points=[[0,0.5],[1,0.5]];portConstraint=eastwest;top=0;left=0;right=0;bottom=0;" vertex="1" parent="xuCqlQGLWo-v2Zik0cqL-1">
          <mxGeometry y="440" width="330" height="30" as="geometry" />
        </mxCell>
        <mxCell id="xuCqlQGLWo-v2Zik0cqL-87" value="" style="shape=partialRectangle;connectable=0;fillColor=none;top=0;left=0;bottom=0;right=0;editable=1;overflow=hidden;whiteSpace=wrap;html=1;" vertex="1" parent="xuCqlQGLWo-v2Zik0cqL-86">
          <mxGeometry width="30" height="30" as="geometry">
            <mxRectangle width="30" height="30" as="alternateBounds" />
          </mxGeometry>
        </mxCell>
        <mxCell id="xuCqlQGLWo-v2Zik0cqL-88" value="status" style="shape=partialRectangle;connectable=0;fillColor=none;top=0;left=0;bottom=0;right=0;align=left;spacingLeft=6;overflow=hidden;whiteSpace=wrap;html=1;" vertex="1" parent="xuCqlQGLWo-v2Zik0cqL-86">
          <mxGeometry x="30" width="150" height="30" as="geometry">
            <mxRectangle width="150" height="30" as="alternateBounds" />
          </mxGeometry>
        </mxCell>
        <mxCell id="xuCqlQGLWo-v2Zik0cqL-89" value="String" style="shape=partialRectangle;connectable=0;fillColor=none;top=0;left=0;bottom=0;right=0;align=left;spacingLeft=6;overflow=hidden;whiteSpace=wrap;html=1;" vertex="1" parent="xuCqlQGLWo-v2Zik0cqL-86">
          <mxGeometry x="180" width="150" height="30" as="geometry">
            <mxRectangle width="150" height="30" as="alternateBounds" />
          </mxGeometry>
        </mxCell>
        <mxCell id="xuCqlQGLWo-v2Zik0cqL-90" value="" style="shape=tableRow;horizontal=0;startSize=0;swimlaneHead=0;swimlaneBody=0;fillColor=none;collapsible=0;dropTarget=0;points=[[0,0.5],[1,0.5]];portConstraint=eastwest;top=0;left=0;right=0;bottom=0;" vertex="1" parent="xuCqlQGLWo-v2Zik0cqL-1">
          <mxGeometry y="470" width="330" height="30" as="geometry" />
        </mxCell>
        <mxCell id="xuCqlQGLWo-v2Zik0cqL-91" value="" style="shape=partialRectangle;connectable=0;fillColor=none;top=0;left=0;bottom=0;right=0;editable=1;overflow=hidden;whiteSpace=wrap;html=1;" vertex="1" parent="xuCqlQGLWo-v2Zik0cqL-90">
          <mxGeometry width="30" height="30" as="geometry">
            <mxRectangle width="30" height="30" as="alternateBounds" />
          </mxGeometry>
        </mxCell>
        <mxCell id="xuCqlQGLWo-v2Zik0cqL-92" value="academicDepartment" style="shape=partialRectangle;connectable=0;fillColor=none;top=0;left=0;bottom=0;right=0;align=left;spacingLeft=6;overflow=hidden;whiteSpace=wrap;html=1;" vertex="1" parent="xuCqlQGLWo-v2Zik0cqL-90">
          <mxGeometry x="30" width="150" height="30" as="geometry">
            <mxRectangle width="150" height="30" as="alternateBounds" />
          </mxGeometry>
        </mxCell>
        <mxCell id="xuCqlQGLWo-v2Zik0cqL-93" value="ObjectId" style="shape=partialRectangle;connectable=0;fillColor=none;top=0;left=0;bottom=0;right=0;align=left;spacingLeft=6;overflow=hidden;whiteSpace=wrap;html=1;" vertex="1" parent="xuCqlQGLWo-v2Zik0cqL-90">
          <mxGeometry x="180" width="150" height="30" as="geometry">
            <mxRectangle width="150" height="30" as="alternateBounds" />
          </mxGeometry>
        </mxCell>
        <mxCell id="xuCqlQGLWo-v2Zik0cqL-94" value="" style="shape=tableRow;horizontal=0;startSize=0;swimlaneHead=0;swimlaneBody=0;fillColor=none;collapsible=0;dropTarget=0;points=[[0,0.5],[1,0.5]];portConstraint=eastwest;top=0;left=0;right=0;bottom=0;" vertex="1" parent="xuCqlQGLWo-v2Zik0cqL-1">
          <mxGeometry y="500" width="330" height="30" as="geometry" />
        </mxCell>
        <mxCell id="xuCqlQGLWo-v2Zik0cqL-95" value="" style="shape=partialRectangle;connectable=0;fillColor=none;top=0;left=0;bottom=0;right=0;editable=1;overflow=hidden;whiteSpace=wrap;html=1;" vertex="1" parent="xuCqlQGLWo-v2Zik0cqL-94">
          <mxGeometry width="30" height="30" as="geometry">
            <mxRectangle width="30" height="30" as="alternateBounds" />
          </mxGeometry>
        </mxCell>
        <mxCell id="xuCqlQGLWo-v2Zik0cqL-96" value="isDeleted" style="shape=partialRectangle;connectable=0;fillColor=none;top=0;left=0;bottom=0;right=0;align=left;spacingLeft=6;overflow=hidden;whiteSpace=wrap;html=1;" vertex="1" parent="xuCqlQGLWo-v2Zik0cqL-94">
          <mxGeometry x="30" width="150" height="30" as="geometry">
            <mxRectangle width="150" height="30" as="alternateBounds" />
          </mxGeometry>
        </mxCell>
        <mxCell id="xuCqlQGLWo-v2Zik0cqL-97" value="Boolean" style="shape=partialRectangle;connectable=0;fillColor=none;top=0;left=0;bottom=0;right=0;align=left;spacingLeft=6;overflow=hidden;whiteSpace=wrap;html=1;" vertex="1" parent="xuCqlQGLWo-v2Zik0cqL-94">
          <mxGeometry x="180" width="150" height="30" as="geometry">
            <mxRectangle width="150" height="30" as="alternateBounds" />
          </mxGeometry>
        </mxCell>
        <mxCell id="xuCqlQGLWo-v2Zik0cqL-98" value="" style="shape=tableRow;horizontal=0;startSize=0;swimlaneHead=0;swimlaneBody=0;fillColor=none;collapsible=0;dropTarget=0;points=[[0,0.5],[1,0.5]];portConstraint=eastwest;top=0;left=0;right=0;bottom=0;" vertex="1" parent="xuCqlQGLWo-v2Zik0cqL-1">
          <mxGeometry y="530" width="330" height="30" as="geometry" />
        </mxCell>
        <mxCell id="xuCqlQGLWo-v2Zik0cqL-99" value="" style="shape=partialRectangle;connectable=0;fillColor=none;top=0;left=0;bottom=0;right=0;editable=1;overflow=hidden;whiteSpace=wrap;html=1;" vertex="1" parent="xuCqlQGLWo-v2Zik0cqL-98">
          <mxGeometry width="30" height="30" as="geometry">
            <mxRectangle width="30" height="30" as="alternateBounds" />
          </mxGeometry>
        </mxCell>
        <mxCell id="xuCqlQGLWo-v2Zik0cqL-100" value="createdAt" style="shape=partialRectangle;connectable=0;fillColor=none;top=0;left=0;bottom=0;right=0;align=left;spacingLeft=6;overflow=hidden;whiteSpace=wrap;html=1;" vertex="1" parent="xuCqlQGLWo-v2Zik0cqL-98">
          <mxGeometry x="30" width="150" height="30" as="geometry">
            <mxRectangle width="150" height="30" as="alternateBounds" />
          </mxGeometry>
        </mxCell>
        <mxCell id="xuCqlQGLWo-v2Zik0cqL-101" value="Date" style="shape=partialRectangle;connectable=0;fillColor=none;top=0;left=0;bottom=0;right=0;align=left;spacingLeft=6;overflow=hidden;whiteSpace=wrap;html=1;" vertex="1" parent="xuCqlQGLWo-v2Zik0cqL-98">
          <mxGeometry x="180" width="150" height="30" as="geometry">
            <mxRectangle width="150" height="30" as="alternateBounds" />
          </mxGeometry>
        </mxCell>
        <mxCell id="xuCqlQGLWo-v2Zik0cqL-102" value="" style="shape=tableRow;horizontal=0;startSize=0;swimlaneHead=0;swimlaneBody=0;fillColor=none;collapsible=0;dropTarget=0;points=[[0,0.5],[1,0.5]];portConstraint=eastwest;top=0;left=0;right=0;bottom=0;" vertex="1" parent="xuCqlQGLWo-v2Zik0cqL-1">
          <mxGeometry y="560" width="330" height="30" as="geometry" />
        </mxCell>
        <mxCell id="xuCqlQGLWo-v2Zik0cqL-103" value="" style="shape=partialRectangle;connectable=0;fillColor=none;top=0;left=0;bottom=0;right=0;editable=1;overflow=hidden;whiteSpace=wrap;html=1;" vertex="1" parent="xuCqlQGLWo-v2Zik0cqL-102">
          <mxGeometry width="30" height="30" as="geometry">
            <mxRectangle width="30" height="30" as="alternateBounds" />
          </mxGeometry>
        </mxCell>
        <mxCell id="xuCqlQGLWo-v2Zik0cqL-104" value="updatedAt" style="shape=partialRectangle;connectable=0;fillColor=none;top=0;left=0;bottom=0;right=0;align=left;spacingLeft=6;overflow=hidden;whiteSpace=wrap;html=1;" vertex="1" parent="xuCqlQGLWo-v2Zik0cqL-102">
          <mxGeometry x="30" width="150" height="30" as="geometry">
            <mxRectangle width="150" height="30" as="alternateBounds" />
          </mxGeometry>
        </mxCell>
        <mxCell id="xuCqlQGLWo-v2Zik0cqL-105" value="Date" style="shape=partialRectangle;connectable=0;fillColor=none;top=0;left=0;bottom=0;right=0;align=left;spacingLeft=6;overflow=hidden;whiteSpace=wrap;html=1;" vertex="1" parent="xuCqlQGLWo-v2Zik0cqL-102">
          <mxGeometry x="180" width="150" height="30" as="geometry">
            <mxRectangle width="150" height="30" as="alternateBounds" />
          </mxGeometry>
        </mxCell>
        <mxCell id="xuCqlQGLWo-v2Zik0cqL-106" value="Faculty" style="shape=table;startSize=30;container=1;collapsible=1;childLayout=tableLayout;fixedRows=1;rowLines=0;fontStyle=1;align=center;resizeLast=1;html=1;" vertex="1" parent="1">
          <mxGeometry x="440" y="60" width="330" height="600" as="geometry" />
        </mxCell>
        <mxCell id="xuCqlQGLWo-v2Zik0cqL-107" value="" style="shape=tableRow;horizontal=0;startSize=0;swimlaneHead=0;swimlaneBody=0;fillColor=none;collapsible=0;dropTarget=0;points=[[0,0.5],[1,0.5]];portConstraint=eastwest;top=0;left=0;right=0;bottom=1;" vertex="1" parent="xuCqlQGLWo-v2Zik0cqL-106">
          <mxGeometry y="30" width="330" height="30" as="geometry" />
        </mxCell>
        <mxCell id="xuCqlQGLWo-v2Zik0cqL-108" value="PK" style="shape=partialRectangle;connectable=0;fillColor=none;top=0;left=0;bottom=0;right=0;fontStyle=1;overflow=hidden;whiteSpace=wrap;html=1;" vertex="1" parent="xuCqlQGLWo-v2Zik0cqL-107">
          <mxGeometry width="30" height="30" as="geometry">
            <mxRectangle width="30" height="30" as="alternateBounds" />
          </mxGeometry>
        </mxCell>
        <mxCell id="xuCqlQGLWo-v2Zik0cqL-109" value="_id" style="shape=partialRectangle;connectable=0;fillColor=none;top=0;left=0;bottom=0;right=0;align=left;spacingLeft=6;fontStyle=5;overflow=hidden;whiteSpace=wrap;html=1;" vertex="1" parent="xuCqlQGLWo-v2Zik0cqL-107">
          <mxGeometry x="30" width="150" height="30" as="geometry">
            <mxRectangle width="150" height="30" as="alternateBounds" />
          </mxGeometry>
        </mxCell>
        <mxCell id="xuCqlQGLWo-v2Zik0cqL-110" value="ObjectId" style="shape=partialRectangle;connectable=0;fillColor=none;top=0;left=0;bottom=0;right=0;align=left;spacingLeft=6;fontStyle=5;overflow=hidden;whiteSpace=wrap;html=1;" vertex="1" parent="xuCqlQGLWo-v2Zik0cqL-107">
          <mxGeometry x="180" width="150" height="30" as="geometry">
            <mxRectangle width="150" height="30" as="alternateBounds" />
          </mxGeometry>
        </mxCell>
        <mxCell id="xuCqlQGLWo-v2Zik0cqL-111" value="" style="shape=tableRow;horizontal=0;startSize=0;swimlaneHead=0;swimlaneBody=0;fillColor=none;collapsible=0;dropTarget=0;points=[[0,0.5],[1,0.5]];portConstraint=eastwest;top=0;left=0;right=0;bottom=0;strokeWidth=12;" vertex="1" parent="xuCqlQGLWo-v2Zik0cqL-106">
          <mxGeometry y="60" width="330" height="30" as="geometry" />
        </mxCell>
        <mxCell id="xuCqlQGLWo-v2Zik0cqL-112" value="" style="shape=partialRectangle;connectable=0;fillColor=none;top=0;left=0;bottom=0;right=0;editable=1;overflow=hidden;whiteSpace=wrap;html=1;" vertex="1" parent="xuCqlQGLWo-v2Zik0cqL-111">
          <mxGeometry width="30" height="30" as="geometry">
            <mxRectangle width="30" height="30" as="alternateBounds" />
          </mxGeometry>
        </mxCell>
        <mxCell id="xuCqlQGLWo-v2Zik0cqL-113" value="id :" style="shape=partialRectangle;connectable=0;fillColor=none;top=0;left=0;bottom=0;right=0;align=left;spacingLeft=6;overflow=hidden;whiteSpace=wrap;html=1;" vertex="1" parent="xuCqlQGLWo-v2Zik0cqL-111">
          <mxGeometry x="30" width="150" height="30" as="geometry">
            <mxRectangle width="150" height="30" as="alternateBounds" />
          </mxGeometry>
        </mxCell>
        <mxCell id="xuCqlQGLWo-v2Zik0cqL-114" value="String" style="shape=partialRectangle;connectable=0;fillColor=none;top=0;left=0;bottom=0;right=0;align=left;spacingLeft=6;overflow=hidden;whiteSpace=wrap;html=1;" vertex="1" parent="xuCqlQGLWo-v2Zik0cqL-111">
          <mxGeometry x="180" width="150" height="30" as="geometry">
            <mxRectangle width="150" height="30" as="alternateBounds" />
          </mxGeometry>
        </mxCell>
        <mxCell id="xuCqlQGLWo-v2Zik0cqL-115" value="" style="shape=tableRow;horizontal=0;startSize=0;swimlaneHead=0;swimlaneBody=0;fillColor=none;collapsible=0;dropTarget=0;points=[[0,0.5],[1,0.5]];portConstraint=eastwest;top=0;left=0;right=0;bottom=0;" vertex="1" parent="xuCqlQGLWo-v2Zik0cqL-106">
          <mxGeometry y="90" width="330" height="30" as="geometry" />
        </mxCell>
        <mxCell id="xuCqlQGLWo-v2Zik0cqL-116" value="FK" style="shape=partialRectangle;connectable=0;fillColor=none;top=0;left=0;bottom=0;right=0;editable=1;overflow=hidden;whiteSpace=wrap;html=1;" vertex="1" parent="xuCqlQGLWo-v2Zik0cqL-115">
          <mxGeometry width="30" height="30" as="geometry">
            <mxRectangle width="30" height="30" as="alternateBounds" />
          </mxGeometry>
        </mxCell>
        <mxCell id="xuCqlQGLWo-v2Zik0cqL-117" value="user" style="shape=partialRectangle;connectable=0;fillColor=none;top=0;left=0;bottom=0;right=0;align=left;spacingLeft=6;overflow=hidden;whiteSpace=wrap;html=1;" vertex="1" parent="xuCqlQGLWo-v2Zik0cqL-115">
          <mxGeometry x="30" width="150" height="30" as="geometry">
            <mxRectangle width="150" height="30" as="alternateBounds" />
          </mxGeometry>
        </mxCell>
        <mxCell id="xuCqlQGLWo-v2Zik0cqL-118" value="ObjectId" style="shape=partialRectangle;connectable=0;fillColor=none;top=0;left=0;bottom=0;right=0;align=left;spacingLeft=6;overflow=hidden;whiteSpace=wrap;html=1;" vertex="1" parent="xuCqlQGLWo-v2Zik0cqL-115">
          <mxGeometry x="180" width="150" height="30" as="geometry">
            <mxRectangle width="150" height="30" as="alternateBounds" />
          </mxGeometry>
        </mxCell>
        <mxCell id="xuCqlQGLWo-v2Zik0cqL-123" value="" style="shape=tableRow;horizontal=0;startSize=0;swimlaneHead=0;swimlaneBody=0;fillColor=none;collapsible=0;dropTarget=0;points=[[0,0.5],[1,0.5]];portConstraint=eastwest;top=0;left=0;right=0;bottom=0;" vertex="1" parent="xuCqlQGLWo-v2Zik0cqL-106">
          <mxGeometry y="120" width="330" height="30" as="geometry" />
        </mxCell>
        <mxCell id="xuCqlQGLWo-v2Zik0cqL-124" value="" style="shape=partialRectangle;connectable=0;fillColor=none;top=0;left=0;bottom=0;right=0;editable=1;overflow=hidden;whiteSpace=wrap;html=1;" vertex="1" parent="xuCqlQGLWo-v2Zik0cqL-123">
          <mxGeometry width="30" height="30" as="geometry">
            <mxRectangle width="30" height="30" as="alternateBounds" />
          </mxGeometry>
        </mxCell>
        <mxCell id="xuCqlQGLWo-v2Zik0cqL-125" value="designation" style="shape=partialRectangle;connectable=0;fillColor=none;top=0;left=0;bottom=0;right=0;align=left;spacingLeft=6;overflow=hidden;whiteSpace=wrap;html=1;" vertex="1" parent="xuCqlQGLWo-v2Zik0cqL-123">
          <mxGeometry x="30" width="150" height="30" as="geometry">
            <mxRectangle width="150" height="30" as="alternateBounds" />
          </mxGeometry>
        </mxCell>
        <mxCell id="xuCqlQGLWo-v2Zik0cqL-126" value="String&lt;div&gt;&lt;br&gt;&lt;/div&gt;" style="shape=partialRectangle;connectable=0;fillColor=none;top=0;left=0;bottom=0;right=0;align=left;spacingLeft=6;overflow=hidden;whiteSpace=wrap;html=1;" vertex="1" parent="xuCqlQGLWo-v2Zik0cqL-123">
          <mxGeometry x="180" width="150" height="30" as="geometry">
            <mxRectangle width="150" height="30" as="alternateBounds" />
          </mxGeometry>
        </mxCell>
        <mxCell id="xuCqlQGLWo-v2Zik0cqL-127" value="" style="shape=tableRow;horizontal=0;startSize=0;swimlaneHead=0;swimlaneBody=0;fillColor=none;collapsible=0;dropTarget=0;points=[[0,0.5],[1,0.5]];portConstraint=eastwest;top=0;left=0;right=0;bottom=0;" vertex="1" parent="xuCqlQGLWo-v2Zik0cqL-106">
          <mxGeometry y="150" width="330" height="30" as="geometry" />
        </mxCell>
        <mxCell id="xuCqlQGLWo-v2Zik0cqL-128" value="" style="shape=partialRectangle;connectable=0;fillColor=none;top=0;left=0;bottom=0;right=0;editable=1;overflow=hidden;whiteSpace=wrap;html=1;" vertex="1" parent="xuCqlQGLWo-v2Zik0cqL-127">
          <mxGeometry width="30" height="30" as="geometry">
            <mxRectangle width="30" height="30" as="alternateBounds" />
          </mxGeometry>
        </mxCell>
        <mxCell id="xuCqlQGLWo-v2Zik0cqL-129" value="name" style="shape=partialRectangle;connectable=0;fillColor=none;top=0;left=0;bottom=0;right=0;align=left;spacingLeft=6;overflow=hidden;whiteSpace=wrap;html=1;" vertex="1" parent="xuCqlQGLWo-v2Zik0cqL-127">
          <mxGeometry x="30" width="150" height="30" as="geometry">
            <mxRectangle width="150" height="30" as="alternateBounds" />
          </mxGeometry>
        </mxCell>
        <mxCell id="xuCqlQGLWo-v2Zik0cqL-130" value="&lt;div&gt;Object&lt;/div&gt;" style="shape=partialRectangle;connectable=0;fillColor=none;top=0;left=0;bottom=0;right=0;align=left;spacingLeft=6;overflow=hidden;whiteSpace=wrap;html=1;" vertex="1" parent="xuCqlQGLWo-v2Zik0cqL-127">
          <mxGeometry x="180" width="150" height="30" as="geometry">
            <mxRectangle width="150" height="30" as="alternateBounds" />
          </mxGeometry>
        </mxCell>
        <mxCell id="xuCqlQGLWo-v2Zik0cqL-131" value="" style="shape=tableRow;horizontal=0;startSize=0;swimlaneHead=0;swimlaneBody=0;fillColor=none;collapsible=0;dropTarget=0;points=[[0,0.5],[1,0.5]];portConstraint=eastwest;top=0;left=0;right=0;bottom=0;" vertex="1" parent="xuCqlQGLWo-v2Zik0cqL-106">
          <mxGeometry y="180" width="330" height="30" as="geometry" />
        </mxCell>
        <mxCell id="xuCqlQGLWo-v2Zik0cqL-132" value="" style="shape=partialRectangle;connectable=0;fillColor=none;top=0;left=0;bottom=0;right=0;editable=1;overflow=hidden;whiteSpace=wrap;html=1;" vertex="1" parent="xuCqlQGLWo-v2Zik0cqL-131">
          <mxGeometry width="30" height="30" as="geometry">
            <mxRectangle width="30" height="30" as="alternateBounds" />
          </mxGeometry>
        </mxCell>
        <mxCell id="xuCqlQGLWo-v2Zik0cqL-133" value="gender" style="shape=partialRectangle;connectable=0;fillColor=none;top=0;left=0;bottom=0;right=0;align=left;spacingLeft=6;overflow=hidden;whiteSpace=wrap;html=1;" vertex="1" parent="xuCqlQGLWo-v2Zik0cqL-131">
          <mxGeometry x="30" width="150" height="30" as="geometry">
            <mxRectangle width="150" height="30" as="alternateBounds" />
          </mxGeometry>
        </mxCell>
        <mxCell id="xuCqlQGLWo-v2Zik0cqL-134" value="String" style="shape=partialRectangle;connectable=0;fillColor=none;top=0;left=0;bottom=0;right=0;align=left;spacingLeft=6;overflow=hidden;whiteSpace=wrap;html=1;" vertex="1" parent="xuCqlQGLWo-v2Zik0cqL-131">
          <mxGeometry x="180" width="150" height="30" as="geometry">
            <mxRectangle width="150" height="30" as="alternateBounds" />
          </mxGeometry>
        </mxCell>
        <mxCell id="xuCqlQGLWo-v2Zik0cqL-135" value="" style="shape=tableRow;horizontal=0;startSize=0;swimlaneHead=0;swimlaneBody=0;fillColor=none;collapsible=0;dropTarget=0;points=[[0,0.5],[1,0.5]];portConstraint=eastwest;top=0;left=0;right=0;bottom=0;" vertex="1" parent="xuCqlQGLWo-v2Zik0cqL-106">
          <mxGeometry y="210" width="330" height="30" as="geometry" />
        </mxCell>
        <mxCell id="xuCqlQGLWo-v2Zik0cqL-136" value="" style="shape=partialRectangle;connectable=0;fillColor=none;top=0;left=0;bottom=0;right=0;editable=1;overflow=hidden;whiteSpace=wrap;html=1;" vertex="1" parent="xuCqlQGLWo-v2Zik0cqL-135">
          <mxGeometry width="30" height="30" as="geometry">
            <mxRectangle width="30" height="30" as="alternateBounds" />
          </mxGeometry>
        </mxCell>
        <mxCell id="xuCqlQGLWo-v2Zik0cqL-137" value="dateOfBirth" style="shape=partialRectangle;connectable=0;fillColor=none;top=0;left=0;bottom=0;right=0;align=left;spacingLeft=6;overflow=hidden;whiteSpace=wrap;html=1;" vertex="1" parent="xuCqlQGLWo-v2Zik0cqL-135">
          <mxGeometry x="30" width="150" height="30" as="geometry">
            <mxRectangle width="150" height="30" as="alternateBounds" />
          </mxGeometry>
        </mxCell>
        <mxCell id="xuCqlQGLWo-v2Zik0cqL-138" value="Date" style="shape=partialRectangle;connectable=0;fillColor=none;top=0;left=0;bottom=0;right=0;align=left;spacingLeft=6;overflow=hidden;whiteSpace=wrap;html=1;" vertex="1" parent="xuCqlQGLWo-v2Zik0cqL-135">
          <mxGeometry x="180" width="150" height="30" as="geometry">
            <mxRectangle width="150" height="30" as="alternateBounds" />
          </mxGeometry>
        </mxCell>
        <mxCell id="xuCqlQGLWo-v2Zik0cqL-139" value="" style="shape=tableRow;horizontal=0;startSize=0;swimlaneHead=0;swimlaneBody=0;fillColor=none;collapsible=0;dropTarget=0;points=[[0,0.5],[1,0.5]];portConstraint=eastwest;top=0;left=0;right=0;bottom=0;" vertex="1" parent="xuCqlQGLWo-v2Zik0cqL-106">
          <mxGeometry y="240" width="330" height="30" as="geometry" />
        </mxCell>
        <mxCell id="xuCqlQGLWo-v2Zik0cqL-140" value="" style="shape=partialRectangle;connectable=0;fillColor=none;top=0;left=0;bottom=0;right=0;editable=1;overflow=hidden;whiteSpace=wrap;html=1;" vertex="1" parent="xuCqlQGLWo-v2Zik0cqL-139">
          <mxGeometry width="30" height="30" as="geometry">
            <mxRectangle width="30" height="30" as="alternateBounds" />
          </mxGeometry>
        </mxCell>
        <mxCell id="xuCqlQGLWo-v2Zik0cqL-141" value="email" style="shape=partialRectangle;connectable=0;fillColor=none;top=0;left=0;bottom=0;right=0;align=left;spacingLeft=6;overflow=hidden;whiteSpace=wrap;html=1;" vertex="1" parent="xuCqlQGLWo-v2Zik0cqL-139">
          <mxGeometry x="30" width="150" height="30" as="geometry">
            <mxRectangle width="150" height="30" as="alternateBounds" />
          </mxGeometry>
        </mxCell>
        <mxCell id="xuCqlQGLWo-v2Zik0cqL-142" value="String" style="shape=partialRectangle;connectable=0;fillColor=none;top=0;left=0;bottom=0;right=0;align=left;spacingLeft=6;overflow=hidden;whiteSpace=wrap;html=1;" vertex="1" parent="xuCqlQGLWo-v2Zik0cqL-139">
          <mxGeometry x="180" width="150" height="30" as="geometry">
            <mxRectangle width="150" height="30" as="alternateBounds" />
          </mxGeometry>
        </mxCell>
        <mxCell id="xuCqlQGLWo-v2Zik0cqL-143" value="" style="shape=tableRow;horizontal=0;startSize=0;swimlaneHead=0;swimlaneBody=0;fillColor=none;collapsible=0;dropTarget=0;points=[[0,0.5],[1,0.5]];portConstraint=eastwest;top=0;left=0;right=0;bottom=0;" vertex="1" parent="xuCqlQGLWo-v2Zik0cqL-106">
          <mxGeometry y="270" width="330" height="30" as="geometry" />
        </mxCell>
        <mxCell id="xuCqlQGLWo-v2Zik0cqL-144" value="" style="shape=partialRectangle;connectable=0;fillColor=none;top=0;left=0;bottom=0;right=0;editable=1;overflow=hidden;whiteSpace=wrap;html=1;" vertex="1" parent="xuCqlQGLWo-v2Zik0cqL-143">
          <mxGeometry width="30" height="30" as="geometry">
            <mxRectangle width="30" height="30" as="alternateBounds" />
          </mxGeometry>
        </mxCell>
        <mxCell id="xuCqlQGLWo-v2Zik0cqL-145" value="contactNo" style="shape=partialRectangle;connectable=0;fillColor=none;top=0;left=0;bottom=0;right=0;align=left;spacingLeft=6;overflow=hidden;whiteSpace=wrap;html=1;" vertex="1" parent="xuCqlQGLWo-v2Zik0cqL-143">
          <mxGeometry x="30" width="150" height="30" as="geometry">
            <mxRectangle width="150" height="30" as="alternateBounds" />
          </mxGeometry>
        </mxCell>
        <mxCell id="xuCqlQGLWo-v2Zik0cqL-146" value="String" style="shape=partialRectangle;connectable=0;fillColor=none;top=0;left=0;bottom=0;right=0;align=left;spacingLeft=6;overflow=hidden;whiteSpace=wrap;html=1;" vertex="1" parent="xuCqlQGLWo-v2Zik0cqL-143">
          <mxGeometry x="180" width="150" height="30" as="geometry">
            <mxRectangle width="150" height="30" as="alternateBounds" />
          </mxGeometry>
        </mxCell>
        <mxCell id="xuCqlQGLWo-v2Zik0cqL-147" value="" style="shape=tableRow;horizontal=0;startSize=0;swimlaneHead=0;swimlaneBody=0;fillColor=none;collapsible=0;dropTarget=0;points=[[0,0.5],[1,0.5]];portConstraint=eastwest;top=0;left=0;right=0;bottom=0;" vertex="1" parent="xuCqlQGLWo-v2Zik0cqL-106">
          <mxGeometry y="300" width="330" height="30" as="geometry" />
        </mxCell>
        <mxCell id="xuCqlQGLWo-v2Zik0cqL-148" value="" style="shape=partialRectangle;connectable=0;fillColor=none;top=0;left=0;bottom=0;right=0;editable=1;overflow=hidden;whiteSpace=wrap;html=1;" vertex="1" parent="xuCqlQGLWo-v2Zik0cqL-147">
          <mxGeometry width="30" height="30" as="geometry">
            <mxRectangle width="30" height="30" as="alternateBounds" />
          </mxGeometry>
        </mxCell>
        <mxCell id="xuCqlQGLWo-v2Zik0cqL-149" value="emergencyContactNo" style="shape=partialRectangle;connectable=0;fillColor=none;top=0;left=0;bottom=0;right=0;align=left;spacingLeft=6;overflow=hidden;whiteSpace=wrap;html=1;" vertex="1" parent="xuCqlQGLWo-v2Zik0cqL-147">
          <mxGeometry x="30" width="150" height="30" as="geometry">
            <mxRectangle width="150" height="30" as="alternateBounds" />
          </mxGeometry>
        </mxCell>
        <mxCell id="xuCqlQGLWo-v2Zik0cqL-150" value="String" style="shape=partialRectangle;connectable=0;fillColor=none;top=0;left=0;bottom=0;right=0;align=left;spacingLeft=6;overflow=hidden;whiteSpace=wrap;html=1;" vertex="1" parent="xuCqlQGLWo-v2Zik0cqL-147">
          <mxGeometry x="180" width="150" height="30" as="geometry">
            <mxRectangle width="150" height="30" as="alternateBounds" />
          </mxGeometry>
        </mxCell>
        <mxCell id="xuCqlQGLWo-v2Zik0cqL-151" value="" style="shape=tableRow;horizontal=0;startSize=0;swimlaneHead=0;swimlaneBody=0;fillColor=none;collapsible=0;dropTarget=0;points=[[0,0.5],[1,0.5]];portConstraint=eastwest;top=0;left=0;right=0;bottom=0;" vertex="1" parent="xuCqlQGLWo-v2Zik0cqL-106">
          <mxGeometry y="330" width="330" height="30" as="geometry" />
        </mxCell>
        <mxCell id="xuCqlQGLWo-v2Zik0cqL-152" value="" style="shape=partialRectangle;connectable=0;fillColor=none;top=0;left=0;bottom=0;right=0;editable=1;overflow=hidden;whiteSpace=wrap;html=1;" vertex="1" parent="xuCqlQGLWo-v2Zik0cqL-151">
          <mxGeometry width="30" height="30" as="geometry">
            <mxRectangle width="30" height="30" as="alternateBounds" />
          </mxGeometry>
        </mxCell>
        <mxCell id="xuCqlQGLWo-v2Zik0cqL-153" value="presentAddress" style="shape=partialRectangle;connectable=0;fillColor=none;top=0;left=0;bottom=0;right=0;align=left;spacingLeft=6;overflow=hidden;whiteSpace=wrap;html=1;" vertex="1" parent="xuCqlQGLWo-v2Zik0cqL-151">
          <mxGeometry x="30" width="150" height="30" as="geometry">
            <mxRectangle width="150" height="30" as="alternateBounds" />
          </mxGeometry>
        </mxCell>
        <mxCell id="xuCqlQGLWo-v2Zik0cqL-154" value="String" style="shape=partialRectangle;connectable=0;fillColor=none;top=0;left=0;bottom=0;right=0;align=left;spacingLeft=6;overflow=hidden;whiteSpace=wrap;html=1;" vertex="1" parent="xuCqlQGLWo-v2Zik0cqL-151">
          <mxGeometry x="180" width="150" height="30" as="geometry">
            <mxRectangle width="150" height="30" as="alternateBounds" />
          </mxGeometry>
        </mxCell>
        <mxCell id="xuCqlQGLWo-v2Zik0cqL-155" value="" style="shape=tableRow;horizontal=0;startSize=0;swimlaneHead=0;swimlaneBody=0;fillColor=none;collapsible=0;dropTarget=0;points=[[0,0.5],[1,0.5]];portConstraint=eastwest;top=0;left=0;right=0;bottom=0;" vertex="1" parent="xuCqlQGLWo-v2Zik0cqL-106">
          <mxGeometry y="360" width="330" height="30" as="geometry" />
        </mxCell>
        <mxCell id="xuCqlQGLWo-v2Zik0cqL-156" value="" style="shape=partialRectangle;connectable=0;fillColor=none;top=0;left=0;bottom=0;right=0;editable=1;overflow=hidden;whiteSpace=wrap;html=1;" vertex="1" parent="xuCqlQGLWo-v2Zik0cqL-155">
          <mxGeometry width="30" height="30" as="geometry">
            <mxRectangle width="30" height="30" as="alternateBounds" />
          </mxGeometry>
        </mxCell>
        <mxCell id="xuCqlQGLWo-v2Zik0cqL-157" value="permanentAddress" style="shape=partialRectangle;connectable=0;fillColor=none;top=0;left=0;bottom=0;right=0;align=left;spacingLeft=6;overflow=hidden;whiteSpace=wrap;html=1;" vertex="1" parent="xuCqlQGLWo-v2Zik0cqL-155">
          <mxGeometry x="30" width="150" height="30" as="geometry">
            <mxRectangle width="150" height="30" as="alternateBounds" />
          </mxGeometry>
        </mxCell>
        <mxCell id="xuCqlQGLWo-v2Zik0cqL-158" value="String" style="shape=partialRectangle;connectable=0;fillColor=none;top=0;left=0;bottom=0;right=0;align=left;spacingLeft=6;overflow=hidden;whiteSpace=wrap;html=1;" vertex="1" parent="xuCqlQGLWo-v2Zik0cqL-155">
          <mxGeometry x="180" width="150" height="30" as="geometry">
            <mxRectangle width="150" height="30" as="alternateBounds" />
          </mxGeometry>
        </mxCell>
        <mxCell id="xuCqlQGLWo-v2Zik0cqL-167" value="" style="shape=tableRow;horizontal=0;startSize=0;swimlaneHead=0;swimlaneBody=0;fillColor=none;collapsible=0;dropTarget=0;points=[[0,0.5],[1,0.5]];portConstraint=eastwest;top=0;left=0;right=0;bottom=0;" vertex="1" parent="xuCqlQGLWo-v2Zik0cqL-106">
          <mxGeometry y="390" width="330" height="30" as="geometry" />
        </mxCell>
        <mxCell id="xuCqlQGLWo-v2Zik0cqL-168" value="" style="shape=partialRectangle;connectable=0;fillColor=none;top=0;left=0;bottom=0;right=0;editable=1;overflow=hidden;whiteSpace=wrap;html=1;" vertex="1" parent="xuCqlQGLWo-v2Zik0cqL-167">
          <mxGeometry width="30" height="30" as="geometry">
            <mxRectangle width="30" height="30" as="alternateBounds" />
          </mxGeometry>
        </mxCell>
        <mxCell id="xuCqlQGLWo-v2Zik0cqL-169" value="profileImage" style="shape=partialRectangle;connectable=0;fillColor=none;top=0;left=0;bottom=0;right=0;align=left;spacingLeft=6;overflow=hidden;whiteSpace=wrap;html=1;" vertex="1" parent="xuCqlQGLWo-v2Zik0cqL-167">
          <mxGeometry x="30" width="150" height="30" as="geometry">
            <mxRectangle width="150" height="30" as="alternateBounds" />
          </mxGeometry>
        </mxCell>
        <mxCell id="xuCqlQGLWo-v2Zik0cqL-170" value="String" style="shape=partialRectangle;connectable=0;fillColor=none;top=0;left=0;bottom=0;right=0;align=left;spacingLeft=6;overflow=hidden;whiteSpace=wrap;html=1;" vertex="1" parent="xuCqlQGLWo-v2Zik0cqL-167">
          <mxGeometry x="180" width="150" height="30" as="geometry">
            <mxRectangle width="150" height="30" as="alternateBounds" />
          </mxGeometry>
        </mxCell>
        <mxCell id="xuCqlQGLWo-v2Zik0cqL-171" value="" style="shape=tableRow;horizontal=0;startSize=0;swimlaneHead=0;swimlaneBody=0;fillColor=none;collapsible=0;dropTarget=0;points=[[0,0.5],[1,0.5]];portConstraint=eastwest;top=0;left=0;right=0;bottom=0;" vertex="1" parent="xuCqlQGLWo-v2Zik0cqL-106">
          <mxGeometry y="420" width="330" height="30" as="geometry" />
        </mxCell>
        <mxCell id="xuCqlQGLWo-v2Zik0cqL-172" value="" style="shape=partialRectangle;connectable=0;fillColor=none;top=0;left=0;bottom=0;right=0;editable=1;overflow=hidden;whiteSpace=wrap;html=1;" vertex="1" parent="xuCqlQGLWo-v2Zik0cqL-171">
          <mxGeometry width="30" height="30" as="geometry">
            <mxRectangle width="30" height="30" as="alternateBounds" />
          </mxGeometry>
        </mxCell>
        <mxCell id="xuCqlQGLWo-v2Zik0cqL-173" value="status" style="shape=partialRectangle;connectable=0;fillColor=none;top=0;left=0;bottom=0;right=0;align=left;spacingLeft=6;overflow=hidden;whiteSpace=wrap;html=1;" vertex="1" parent="xuCqlQGLWo-v2Zik0cqL-171">
          <mxGeometry x="30" width="150" height="30" as="geometry">
            <mxRectangle width="150" height="30" as="alternateBounds" />
          </mxGeometry>
        </mxCell>
        <mxCell id="xuCqlQGLWo-v2Zik0cqL-174" value="String" style="shape=partialRectangle;connectable=0;fillColor=none;top=0;left=0;bottom=0;right=0;align=left;spacingLeft=6;overflow=hidden;whiteSpace=wrap;html=1;" vertex="1" parent="xuCqlQGLWo-v2Zik0cqL-171">
          <mxGeometry x="180" width="150" height="30" as="geometry">
            <mxRectangle width="150" height="30" as="alternateBounds" />
          </mxGeometry>
        </mxCell>
        <mxCell id="xuCqlQGLWo-v2Zik0cqL-175" value="" style="shape=tableRow;horizontal=0;startSize=0;swimlaneHead=0;swimlaneBody=0;fillColor=none;collapsible=0;dropTarget=0;points=[[0,0.5],[1,0.5]];portConstraint=eastwest;top=0;left=0;right=0;bottom=0;" vertex="1" parent="xuCqlQGLWo-v2Zik0cqL-106">
          <mxGeometry y="450" width="330" height="30" as="geometry" />
        </mxCell>
        <mxCell id="xuCqlQGLWo-v2Zik0cqL-176" value="" style="shape=partialRectangle;connectable=0;fillColor=none;top=0;left=0;bottom=0;right=0;editable=1;overflow=hidden;whiteSpace=wrap;html=1;" vertex="1" parent="xuCqlQGLWo-v2Zik0cqL-175">
          <mxGeometry width="30" height="30" as="geometry">
            <mxRectangle width="30" height="30" as="alternateBounds" />
          </mxGeometry>
        </mxCell>
        <mxCell id="xuCqlQGLWo-v2Zik0cqL-177" value="academicDepartment" style="shape=partialRectangle;connectable=0;fillColor=none;top=0;left=0;bottom=0;right=0;align=left;spacingLeft=6;overflow=hidden;whiteSpace=wrap;html=1;" vertex="1" parent="xuCqlQGLWo-v2Zik0cqL-175">
          <mxGeometry x="30" width="150" height="30" as="geometry">
            <mxRectangle width="150" height="30" as="alternateBounds" />
          </mxGeometry>
        </mxCell>
        <mxCell id="xuCqlQGLWo-v2Zik0cqL-178" value="ObjectId" style="shape=partialRectangle;connectable=0;fillColor=none;top=0;left=0;bottom=0;right=0;align=left;spacingLeft=6;overflow=hidden;whiteSpace=wrap;html=1;" vertex="1" parent="xuCqlQGLWo-v2Zik0cqL-175">
          <mxGeometry x="180" width="150" height="30" as="geometry">
            <mxRectangle width="150" height="30" as="alternateBounds" />
          </mxGeometry>
        </mxCell>
        <mxCell id="xuCqlQGLWo-v2Zik0cqL-179" value="" style="shape=tableRow;horizontal=0;startSize=0;swimlaneHead=0;swimlaneBody=0;fillColor=none;collapsible=0;dropTarget=0;points=[[0,0.5],[1,0.5]];portConstraint=eastwest;top=0;left=0;right=0;bottom=0;" vertex="1" parent="xuCqlQGLWo-v2Zik0cqL-106">
          <mxGeometry y="480" width="330" height="30" as="geometry" />
        </mxCell>
        <mxCell id="xuCqlQGLWo-v2Zik0cqL-180" value="" style="shape=partialRectangle;connectable=0;fillColor=none;top=0;left=0;bottom=0;right=0;editable=1;overflow=hidden;whiteSpace=wrap;html=1;" vertex="1" parent="xuCqlQGLWo-v2Zik0cqL-179">
          <mxGeometry width="30" height="30" as="geometry">
            <mxRectangle width="30" height="30" as="alternateBounds" />
          </mxGeometry>
        </mxCell>
        <mxCell id="xuCqlQGLWo-v2Zik0cqL-181" value="isDeleted" style="shape=partialRectangle;connectable=0;fillColor=none;top=0;left=0;bottom=0;right=0;align=left;spacingLeft=6;overflow=hidden;whiteSpace=wrap;html=1;" vertex="1" parent="xuCqlQGLWo-v2Zik0cqL-179">
          <mxGeometry x="30" width="150" height="30" as="geometry">
            <mxRectangle width="150" height="30" as="alternateBounds" />
          </mxGeometry>
        </mxCell>
        <mxCell id="xuCqlQGLWo-v2Zik0cqL-182" value="Boolean" style="shape=partialRectangle;connectable=0;fillColor=none;top=0;left=0;bottom=0;right=0;align=left;spacingLeft=6;overflow=hidden;whiteSpace=wrap;html=1;" vertex="1" parent="xuCqlQGLWo-v2Zik0cqL-179">
          <mxGeometry x="180" width="150" height="30" as="geometry">
            <mxRectangle width="150" height="30" as="alternateBounds" />
          </mxGeometry>
        </mxCell>
        <mxCell id="xuCqlQGLWo-v2Zik0cqL-183" value="" style="shape=tableRow;horizontal=0;startSize=0;swimlaneHead=0;swimlaneBody=0;fillColor=none;collapsible=0;dropTarget=0;points=[[0,0.5],[1,0.5]];portConstraint=eastwest;top=0;left=0;right=0;bottom=0;" vertex="1" parent="xuCqlQGLWo-v2Zik0cqL-106">
          <mxGeometry y="510" width="330" height="30" as="geometry" />
        </mxCell>
        <mxCell id="xuCqlQGLWo-v2Zik0cqL-184" value="" style="shape=partialRectangle;connectable=0;fillColor=none;top=0;left=0;bottom=0;right=0;editable=1;overflow=hidden;whiteSpace=wrap;html=1;" vertex="1" parent="xuCqlQGLWo-v2Zik0cqL-183">
          <mxGeometry width="30" height="30" as="geometry">
            <mxRectangle width="30" height="30" as="alternateBounds" />
          </mxGeometry>
        </mxCell>
        <mxCell id="xuCqlQGLWo-v2Zik0cqL-185" value="createdAt" style="shape=partialRectangle;connectable=0;fillColor=none;top=0;left=0;bottom=0;right=0;align=left;spacingLeft=6;overflow=hidden;whiteSpace=wrap;html=1;" vertex="1" parent="xuCqlQGLWo-v2Zik0cqL-183">
          <mxGeometry x="30" width="150" height="30" as="geometry">
            <mxRectangle width="150" height="30" as="alternateBounds" />
          </mxGeometry>
        </mxCell>
        <mxCell id="xuCqlQGLWo-v2Zik0cqL-186" value="Date" style="shape=partialRectangle;connectable=0;fillColor=none;top=0;left=0;bottom=0;right=0;align=left;spacingLeft=6;overflow=hidden;whiteSpace=wrap;html=1;" vertex="1" parent="xuCqlQGLWo-v2Zik0cqL-183">
          <mxGeometry x="180" width="150" height="30" as="geometry">
            <mxRectangle width="150" height="30" as="alternateBounds" />
          </mxGeometry>
        </mxCell>
        <mxCell id="xuCqlQGLWo-v2Zik0cqL-187" value="" style="shape=tableRow;horizontal=0;startSize=0;swimlaneHead=0;swimlaneBody=0;fillColor=none;collapsible=0;dropTarget=0;points=[[0,0.5],[1,0.5]];portConstraint=eastwest;top=0;left=0;right=0;bottom=0;" vertex="1" parent="xuCqlQGLWo-v2Zik0cqL-106">
          <mxGeometry y="540" width="330" height="30" as="geometry" />
        </mxCell>
        <mxCell id="xuCqlQGLWo-v2Zik0cqL-188" value="" style="shape=partialRectangle;connectable=0;fillColor=none;top=0;left=0;bottom=0;right=0;editable=1;overflow=hidden;whiteSpace=wrap;html=1;" vertex="1" parent="xuCqlQGLWo-v2Zik0cqL-187">
          <mxGeometry width="30" height="30" as="geometry">
            <mxRectangle width="30" height="30" as="alternateBounds" />
          </mxGeometry>
        </mxCell>
        <mxCell id="xuCqlQGLWo-v2Zik0cqL-189" value="updatedAt" style="shape=partialRectangle;connectable=0;fillColor=none;top=0;left=0;bottom=0;right=0;align=left;spacingLeft=6;overflow=hidden;whiteSpace=wrap;html=1;" vertex="1" parent="xuCqlQGLWo-v2Zik0cqL-187">
          <mxGeometry x="30" width="150" height="30" as="geometry">
            <mxRectangle width="150" height="30" as="alternateBounds" />
          </mxGeometry>
        </mxCell>
        <mxCell id="xuCqlQGLWo-v2Zik0cqL-190" value="Date" style="shape=partialRectangle;connectable=0;fillColor=none;top=0;left=0;bottom=0;right=0;align=left;spacingLeft=6;overflow=hidden;whiteSpace=wrap;html=1;" vertex="1" parent="xuCqlQGLWo-v2Zik0cqL-187">
          <mxGeometry x="180" width="150" height="30" as="geometry">
            <mxRectangle width="150" height="30" as="alternateBounds" />
          </mxGeometry>
        </mxCell>
        <mxCell id="xuCqlQGLWo-v2Zik0cqL-280" value="" style="shape=tableRow;horizontal=0;startSize=0;swimlaneHead=0;swimlaneBody=0;fillColor=none;collapsible=0;dropTarget=0;points=[[0,0.5],[1,0.5]];portConstraint=eastwest;top=0;left=0;right=0;bottom=0;" vertex="1" parent="xuCqlQGLWo-v2Zik0cqL-106">
          <mxGeometry y="570" width="330" height="30" as="geometry" />
        </mxCell>
        <mxCell id="xuCqlQGLWo-v2Zik0cqL-281" value="" style="shape=partialRectangle;connectable=0;fillColor=none;top=0;left=0;bottom=0;right=0;editable=1;overflow=hidden;whiteSpace=wrap;html=1;" vertex="1" parent="xuCqlQGLWo-v2Zik0cqL-280">
          <mxGeometry width="30" height="30" as="geometry">
            <mxRectangle width="30" height="30" as="alternateBounds" />
          </mxGeometry>
        </mxCell>
        <mxCell id="xuCqlQGLWo-v2Zik0cqL-282" value="academicFaculty" style="shape=partialRectangle;connectable=0;fillColor=none;top=0;left=0;bottom=0;right=0;align=left;spacingLeft=6;overflow=hidden;whiteSpace=wrap;html=1;" vertex="1" parent="xuCqlQGLWo-v2Zik0cqL-280">
          <mxGeometry x="30" width="150" height="30" as="geometry">
            <mxRectangle width="150" height="30" as="alternateBounds" />
          </mxGeometry>
        </mxCell>
        <mxCell id="xuCqlQGLWo-v2Zik0cqL-283" value="ObjectId" style="shape=partialRectangle;connectable=0;fillColor=none;top=0;left=0;bottom=0;right=0;align=left;spacingLeft=6;overflow=hidden;whiteSpace=wrap;html=1;" vertex="1" parent="xuCqlQGLWo-v2Zik0cqL-280">
          <mxGeometry x="180" width="150" height="30" as="geometry">
            <mxRectangle width="150" height="30" as="alternateBounds" />
          </mxGeometry>
        </mxCell>
        <mxCell id="xuCqlQGLWo-v2Zik0cqL-191" value="Admin" style="shape=table;startSize=30;container=1;collapsible=1;childLayout=tableLayout;fixedRows=1;rowLines=0;fontStyle=1;align=center;resizeLast=1;html=1;" vertex="1" parent="1">
          <mxGeometry x="820" y="-280" width="330" height="570" as="geometry" />
        </mxCell>
        <mxCell id="xuCqlQGLWo-v2Zik0cqL-192" value="" style="shape=tableRow;horizontal=0;startSize=0;swimlaneHead=0;swimlaneBody=0;fillColor=none;collapsible=0;dropTarget=0;points=[[0,0.5],[1,0.5]];portConstraint=eastwest;top=0;left=0;right=0;bottom=1;" vertex="1" parent="xuCqlQGLWo-v2Zik0cqL-191">
          <mxGeometry y="30" width="330" height="30" as="geometry" />
        </mxCell>
        <mxCell id="xuCqlQGLWo-v2Zik0cqL-193" value="PK" style="shape=partialRectangle;connectable=0;fillColor=none;top=0;left=0;bottom=0;right=0;fontStyle=1;overflow=hidden;whiteSpace=wrap;html=1;" vertex="1" parent="xuCqlQGLWo-v2Zik0cqL-192">
          <mxGeometry width="30" height="30" as="geometry">
            <mxRectangle width="30" height="30" as="alternateBounds" />
          </mxGeometry>
        </mxCell>
        <mxCell id="xuCqlQGLWo-v2Zik0cqL-194" value="_id" style="shape=partialRectangle;connectable=0;fillColor=none;top=0;left=0;bottom=0;right=0;align=left;spacingLeft=6;fontStyle=5;overflow=hidden;whiteSpace=wrap;html=1;" vertex="1" parent="xuCqlQGLWo-v2Zik0cqL-192">
          <mxGeometry x="30" width="150" height="30" as="geometry">
            <mxRectangle width="150" height="30" as="alternateBounds" />
          </mxGeometry>
        </mxCell>
        <mxCell id="xuCqlQGLWo-v2Zik0cqL-195" value="ObjectId" style="shape=partialRectangle;connectable=0;fillColor=none;top=0;left=0;bottom=0;right=0;align=left;spacingLeft=6;fontStyle=5;overflow=hidden;whiteSpace=wrap;html=1;" vertex="1" parent="xuCqlQGLWo-v2Zik0cqL-192">
          <mxGeometry x="180" width="150" height="30" as="geometry">
            <mxRectangle width="150" height="30" as="alternateBounds" />
          </mxGeometry>
        </mxCell>
        <mxCell id="xuCqlQGLWo-v2Zik0cqL-196" value="" style="shape=tableRow;horizontal=0;startSize=0;swimlaneHead=0;swimlaneBody=0;fillColor=none;collapsible=0;dropTarget=0;points=[[0,0.5],[1,0.5]];portConstraint=eastwest;top=0;left=0;right=0;bottom=0;strokeWidth=12;" vertex="1" parent="xuCqlQGLWo-v2Zik0cqL-191">
          <mxGeometry y="60" width="330" height="30" as="geometry" />
        </mxCell>
        <mxCell id="xuCqlQGLWo-v2Zik0cqL-197" value="" style="shape=partialRectangle;connectable=0;fillColor=none;top=0;left=0;bottom=0;right=0;editable=1;overflow=hidden;whiteSpace=wrap;html=1;" vertex="1" parent="xuCqlQGLWo-v2Zik0cqL-196">
          <mxGeometry width="30" height="30" as="geometry">
            <mxRectangle width="30" height="30" as="alternateBounds" />
          </mxGeometry>
        </mxCell>
        <mxCell id="xuCqlQGLWo-v2Zik0cqL-198" value="id :" style="shape=partialRectangle;connectable=0;fillColor=none;top=0;left=0;bottom=0;right=0;align=left;spacingLeft=6;overflow=hidden;whiteSpace=wrap;html=1;" vertex="1" parent="xuCqlQGLWo-v2Zik0cqL-196">
          <mxGeometry x="30" width="150" height="30" as="geometry">
            <mxRectangle width="150" height="30" as="alternateBounds" />
          </mxGeometry>
        </mxCell>
        <mxCell id="xuCqlQGLWo-v2Zik0cqL-199" value="String" style="shape=partialRectangle;connectable=0;fillColor=none;top=0;left=0;bottom=0;right=0;align=left;spacingLeft=6;overflow=hidden;whiteSpace=wrap;html=1;" vertex="1" parent="xuCqlQGLWo-v2Zik0cqL-196">
          <mxGeometry x="180" width="150" height="30" as="geometry">
            <mxRectangle width="150" height="30" as="alternateBounds" />
          </mxGeometry>
        </mxCell>
        <mxCell id="xuCqlQGLWo-v2Zik0cqL-200" value="" style="shape=tableRow;horizontal=0;startSize=0;swimlaneHead=0;swimlaneBody=0;fillColor=none;collapsible=0;dropTarget=0;points=[[0,0.5],[1,0.5]];portConstraint=eastwest;top=0;left=0;right=0;bottom=0;" vertex="1" parent="xuCqlQGLWo-v2Zik0cqL-191">
          <mxGeometry y="90" width="330" height="30" as="geometry" />
        </mxCell>
        <mxCell id="xuCqlQGLWo-v2Zik0cqL-201" value="FK" style="shape=partialRectangle;connectable=0;fillColor=none;top=0;left=0;bottom=0;right=0;editable=1;overflow=hidden;whiteSpace=wrap;html=1;" vertex="1" parent="xuCqlQGLWo-v2Zik0cqL-200">
          <mxGeometry width="30" height="30" as="geometry">
            <mxRectangle width="30" height="30" as="alternateBounds" />
          </mxGeometry>
        </mxCell>
        <mxCell id="xuCqlQGLWo-v2Zik0cqL-202" value="user" style="shape=partialRectangle;connectable=0;fillColor=none;top=0;left=0;bottom=0;right=0;align=left;spacingLeft=6;overflow=hidden;whiteSpace=wrap;html=1;" vertex="1" parent="xuCqlQGLWo-v2Zik0cqL-200">
          <mxGeometry x="30" width="150" height="30" as="geometry">
            <mxRectangle width="150" height="30" as="alternateBounds" />
          </mxGeometry>
        </mxCell>
        <mxCell id="xuCqlQGLWo-v2Zik0cqL-203" value="ObjectId" style="shape=partialRectangle;connectable=0;fillColor=none;top=0;left=0;bottom=0;right=0;align=left;spacingLeft=6;overflow=hidden;whiteSpace=wrap;html=1;" vertex="1" parent="xuCqlQGLWo-v2Zik0cqL-200">
          <mxGeometry x="180" width="150" height="30" as="geometry">
            <mxRectangle width="150" height="30" as="alternateBounds" />
          </mxGeometry>
        </mxCell>
        <mxCell id="xuCqlQGLWo-v2Zik0cqL-208" value="" style="shape=tableRow;horizontal=0;startSize=0;swimlaneHead=0;swimlaneBody=0;fillColor=none;collapsible=0;dropTarget=0;points=[[0,0.5],[1,0.5]];portConstraint=eastwest;top=0;left=0;right=0;bottom=0;" vertex="1" parent="xuCqlQGLWo-v2Zik0cqL-191">
          <mxGeometry y="120" width="330" height="30" as="geometry" />
        </mxCell>
        <mxCell id="xuCqlQGLWo-v2Zik0cqL-209" value="" style="shape=partialRectangle;connectable=0;fillColor=none;top=0;left=0;bottom=0;right=0;editable=1;overflow=hidden;whiteSpace=wrap;html=1;" vertex="1" parent="xuCqlQGLWo-v2Zik0cqL-208">
          <mxGeometry width="30" height="30" as="geometry">
            <mxRectangle width="30" height="30" as="alternateBounds" />
          </mxGeometry>
        </mxCell>
        <mxCell id="xuCqlQGLWo-v2Zik0cqL-210" value="designation" style="shape=partialRectangle;connectable=0;fillColor=none;top=0;left=0;bottom=0;right=0;align=left;spacingLeft=6;overflow=hidden;whiteSpace=wrap;html=1;" vertex="1" parent="xuCqlQGLWo-v2Zik0cqL-208">
          <mxGeometry x="30" width="150" height="30" as="geometry">
            <mxRectangle width="150" height="30" as="alternateBounds" />
          </mxGeometry>
        </mxCell>
        <mxCell id="xuCqlQGLWo-v2Zik0cqL-211" value="String&lt;div&gt;&lt;br&gt;&lt;/div&gt;" style="shape=partialRectangle;connectable=0;fillColor=none;top=0;left=0;bottom=0;right=0;align=left;spacingLeft=6;overflow=hidden;whiteSpace=wrap;html=1;" vertex="1" parent="xuCqlQGLWo-v2Zik0cqL-208">
          <mxGeometry x="180" width="150" height="30" as="geometry">
            <mxRectangle width="150" height="30" as="alternateBounds" />
          </mxGeometry>
        </mxCell>
        <mxCell id="xuCqlQGLWo-v2Zik0cqL-212" value="" style="shape=tableRow;horizontal=0;startSize=0;swimlaneHead=0;swimlaneBody=0;fillColor=none;collapsible=0;dropTarget=0;points=[[0,0.5],[1,0.5]];portConstraint=eastwest;top=0;left=0;right=0;bottom=0;" vertex="1" parent="xuCqlQGLWo-v2Zik0cqL-191">
          <mxGeometry y="150" width="330" height="30" as="geometry" />
        </mxCell>
        <mxCell id="xuCqlQGLWo-v2Zik0cqL-213" value="" style="shape=partialRectangle;connectable=0;fillColor=none;top=0;left=0;bottom=0;right=0;editable=1;overflow=hidden;whiteSpace=wrap;html=1;" vertex="1" parent="xuCqlQGLWo-v2Zik0cqL-212">
          <mxGeometry width="30" height="30" as="geometry">
            <mxRectangle width="30" height="30" as="alternateBounds" />
          </mxGeometry>
        </mxCell>
        <mxCell id="xuCqlQGLWo-v2Zik0cqL-214" value="name" style="shape=partialRectangle;connectable=0;fillColor=none;top=0;left=0;bottom=0;right=0;align=left;spacingLeft=6;overflow=hidden;whiteSpace=wrap;html=1;" vertex="1" parent="xuCqlQGLWo-v2Zik0cqL-212">
          <mxGeometry x="30" width="150" height="30" as="geometry">
            <mxRectangle width="150" height="30" as="alternateBounds" />
          </mxGeometry>
        </mxCell>
        <mxCell id="xuCqlQGLWo-v2Zik0cqL-215" value="&lt;div&gt;Object&lt;/div&gt;" style="shape=partialRectangle;connectable=0;fillColor=none;top=0;left=0;bottom=0;right=0;align=left;spacingLeft=6;overflow=hidden;whiteSpace=wrap;html=1;" vertex="1" parent="xuCqlQGLWo-v2Zik0cqL-212">
          <mxGeometry x="180" width="150" height="30" as="geometry">
            <mxRectangle width="150" height="30" as="alternateBounds" />
          </mxGeometry>
        </mxCell>
        <mxCell id="xuCqlQGLWo-v2Zik0cqL-216" value="" style="shape=tableRow;horizontal=0;startSize=0;swimlaneHead=0;swimlaneBody=0;fillColor=none;collapsible=0;dropTarget=0;points=[[0,0.5],[1,0.5]];portConstraint=eastwest;top=0;left=0;right=0;bottom=0;" vertex="1" parent="xuCqlQGLWo-v2Zik0cqL-191">
          <mxGeometry y="180" width="330" height="30" as="geometry" />
        </mxCell>
        <mxCell id="xuCqlQGLWo-v2Zik0cqL-217" value="" style="shape=partialRectangle;connectable=0;fillColor=none;top=0;left=0;bottom=0;right=0;editable=1;overflow=hidden;whiteSpace=wrap;html=1;" vertex="1" parent="xuCqlQGLWo-v2Zik0cqL-216">
          <mxGeometry width="30" height="30" as="geometry">
            <mxRectangle width="30" height="30" as="alternateBounds" />
          </mxGeometry>
        </mxCell>
        <mxCell id="xuCqlQGLWo-v2Zik0cqL-218" value="gender" style="shape=partialRectangle;connectable=0;fillColor=none;top=0;left=0;bottom=0;right=0;align=left;spacingLeft=6;overflow=hidden;whiteSpace=wrap;html=1;" vertex="1" parent="xuCqlQGLWo-v2Zik0cqL-216">
          <mxGeometry x="30" width="150" height="30" as="geometry">
            <mxRectangle width="150" height="30" as="alternateBounds" />
          </mxGeometry>
        </mxCell>
        <mxCell id="xuCqlQGLWo-v2Zik0cqL-219" value="String" style="shape=partialRectangle;connectable=0;fillColor=none;top=0;left=0;bottom=0;right=0;align=left;spacingLeft=6;overflow=hidden;whiteSpace=wrap;html=1;" vertex="1" parent="xuCqlQGLWo-v2Zik0cqL-216">
          <mxGeometry x="180" width="150" height="30" as="geometry">
            <mxRectangle width="150" height="30" as="alternateBounds" />
          </mxGeometry>
        </mxCell>
        <mxCell id="xuCqlQGLWo-v2Zik0cqL-220" value="" style="shape=tableRow;horizontal=0;startSize=0;swimlaneHead=0;swimlaneBody=0;fillColor=none;collapsible=0;dropTarget=0;points=[[0,0.5],[1,0.5]];portConstraint=eastwest;top=0;left=0;right=0;bottom=0;" vertex="1" parent="xuCqlQGLWo-v2Zik0cqL-191">
          <mxGeometry y="210" width="330" height="30" as="geometry" />
        </mxCell>
        <mxCell id="xuCqlQGLWo-v2Zik0cqL-221" value="" style="shape=partialRectangle;connectable=0;fillColor=none;top=0;left=0;bottom=0;right=0;editable=1;overflow=hidden;whiteSpace=wrap;html=1;" vertex="1" parent="xuCqlQGLWo-v2Zik0cqL-220">
          <mxGeometry width="30" height="30" as="geometry">
            <mxRectangle width="30" height="30" as="alternateBounds" />
          </mxGeometry>
        </mxCell>
        <mxCell id="xuCqlQGLWo-v2Zik0cqL-222" value="dateOfBirth" style="shape=partialRectangle;connectable=0;fillColor=none;top=0;left=0;bottom=0;right=0;align=left;spacingLeft=6;overflow=hidden;whiteSpace=wrap;html=1;" vertex="1" parent="xuCqlQGLWo-v2Zik0cqL-220">
          <mxGeometry x="30" width="150" height="30" as="geometry">
            <mxRectangle width="150" height="30" as="alternateBounds" />
          </mxGeometry>
        </mxCell>
        <mxCell id="xuCqlQGLWo-v2Zik0cqL-223" value="Date" style="shape=partialRectangle;connectable=0;fillColor=none;top=0;left=0;bottom=0;right=0;align=left;spacingLeft=6;overflow=hidden;whiteSpace=wrap;html=1;" vertex="1" parent="xuCqlQGLWo-v2Zik0cqL-220">
          <mxGeometry x="180" width="150" height="30" as="geometry">
            <mxRectangle width="150" height="30" as="alternateBounds" />
          </mxGeometry>
        </mxCell>
        <mxCell id="xuCqlQGLWo-v2Zik0cqL-224" value="" style="shape=tableRow;horizontal=0;startSize=0;swimlaneHead=0;swimlaneBody=0;fillColor=none;collapsible=0;dropTarget=0;points=[[0,0.5],[1,0.5]];portConstraint=eastwest;top=0;left=0;right=0;bottom=0;" vertex="1" parent="xuCqlQGLWo-v2Zik0cqL-191">
          <mxGeometry y="240" width="330" height="30" as="geometry" />
        </mxCell>
        <mxCell id="xuCqlQGLWo-v2Zik0cqL-225" value="" style="shape=partialRectangle;connectable=0;fillColor=none;top=0;left=0;bottom=0;right=0;editable=1;overflow=hidden;whiteSpace=wrap;html=1;" vertex="1" parent="xuCqlQGLWo-v2Zik0cqL-224">
          <mxGeometry width="30" height="30" as="geometry">
            <mxRectangle width="30" height="30" as="alternateBounds" />
          </mxGeometry>
        </mxCell>
        <mxCell id="xuCqlQGLWo-v2Zik0cqL-226" value="email" style="shape=partialRectangle;connectable=0;fillColor=none;top=0;left=0;bottom=0;right=0;align=left;spacingLeft=6;overflow=hidden;whiteSpace=wrap;html=1;" vertex="1" parent="xuCqlQGLWo-v2Zik0cqL-224">
          <mxGeometry x="30" width="150" height="30" as="geometry">
            <mxRectangle width="150" height="30" as="alternateBounds" />
          </mxGeometry>
        </mxCell>
        <mxCell id="xuCqlQGLWo-v2Zik0cqL-227" value="String" style="shape=partialRectangle;connectable=0;fillColor=none;top=0;left=0;bottom=0;right=0;align=left;spacingLeft=6;overflow=hidden;whiteSpace=wrap;html=1;" vertex="1" parent="xuCqlQGLWo-v2Zik0cqL-224">
          <mxGeometry x="180" width="150" height="30" as="geometry">
            <mxRectangle width="150" height="30" as="alternateBounds" />
          </mxGeometry>
        </mxCell>
        <mxCell id="xuCqlQGLWo-v2Zik0cqL-228" value="" style="shape=tableRow;horizontal=0;startSize=0;swimlaneHead=0;swimlaneBody=0;fillColor=none;collapsible=0;dropTarget=0;points=[[0,0.5],[1,0.5]];portConstraint=eastwest;top=0;left=0;right=0;bottom=0;" vertex="1" parent="xuCqlQGLWo-v2Zik0cqL-191">
          <mxGeometry y="270" width="330" height="30" as="geometry" />
        </mxCell>
        <mxCell id="xuCqlQGLWo-v2Zik0cqL-229" value="" style="shape=partialRectangle;connectable=0;fillColor=none;top=0;left=0;bottom=0;right=0;editable=1;overflow=hidden;whiteSpace=wrap;html=1;" vertex="1" parent="xuCqlQGLWo-v2Zik0cqL-228">
          <mxGeometry width="30" height="30" as="geometry">
            <mxRectangle width="30" height="30" as="alternateBounds" />
          </mxGeometry>
        </mxCell>
        <mxCell id="xuCqlQGLWo-v2Zik0cqL-230" value="contactNo" style="shape=partialRectangle;connectable=0;fillColor=none;top=0;left=0;bottom=0;right=0;align=left;spacingLeft=6;overflow=hidden;whiteSpace=wrap;html=1;" vertex="1" parent="xuCqlQGLWo-v2Zik0cqL-228">
          <mxGeometry x="30" width="150" height="30" as="geometry">
            <mxRectangle width="150" height="30" as="alternateBounds" />
          </mxGeometry>
        </mxCell>
        <mxCell id="xuCqlQGLWo-v2Zik0cqL-231" value="String" style="shape=partialRectangle;connectable=0;fillColor=none;top=0;left=0;bottom=0;right=0;align=left;spacingLeft=6;overflow=hidden;whiteSpace=wrap;html=1;" vertex="1" parent="xuCqlQGLWo-v2Zik0cqL-228">
          <mxGeometry x="180" width="150" height="30" as="geometry">
            <mxRectangle width="150" height="30" as="alternateBounds" />
          </mxGeometry>
        </mxCell>
        <mxCell id="xuCqlQGLWo-v2Zik0cqL-232" value="" style="shape=tableRow;horizontal=0;startSize=0;swimlaneHead=0;swimlaneBody=0;fillColor=none;collapsible=0;dropTarget=0;points=[[0,0.5],[1,0.5]];portConstraint=eastwest;top=0;left=0;right=0;bottom=0;" vertex="1" parent="xuCqlQGLWo-v2Zik0cqL-191">
          <mxGeometry y="300" width="330" height="30" as="geometry" />
        </mxCell>
        <mxCell id="xuCqlQGLWo-v2Zik0cqL-233" value="" style="shape=partialRectangle;connectable=0;fillColor=none;top=0;left=0;bottom=0;right=0;editable=1;overflow=hidden;whiteSpace=wrap;html=1;" vertex="1" parent="xuCqlQGLWo-v2Zik0cqL-232">
          <mxGeometry width="30" height="30" as="geometry">
            <mxRectangle width="30" height="30" as="alternateBounds" />
          </mxGeometry>
        </mxCell>
        <mxCell id="xuCqlQGLWo-v2Zik0cqL-234" value="emergencyContactNo" style="shape=partialRectangle;connectable=0;fillColor=none;top=0;left=0;bottom=0;right=0;align=left;spacingLeft=6;overflow=hidden;whiteSpace=wrap;html=1;" vertex="1" parent="xuCqlQGLWo-v2Zik0cqL-232">
          <mxGeometry x="30" width="150" height="30" as="geometry">
            <mxRectangle width="150" height="30" as="alternateBounds" />
          </mxGeometry>
        </mxCell>
        <mxCell id="xuCqlQGLWo-v2Zik0cqL-235" value="String" style="shape=partialRectangle;connectable=0;fillColor=none;top=0;left=0;bottom=0;right=0;align=left;spacingLeft=6;overflow=hidden;whiteSpace=wrap;html=1;" vertex="1" parent="xuCqlQGLWo-v2Zik0cqL-232">
          <mxGeometry x="180" width="150" height="30" as="geometry">
            <mxRectangle width="150" height="30" as="alternateBounds" />
          </mxGeometry>
        </mxCell>
        <mxCell id="xuCqlQGLWo-v2Zik0cqL-236" value="" style="shape=tableRow;horizontal=0;startSize=0;swimlaneHead=0;swimlaneBody=0;fillColor=none;collapsible=0;dropTarget=0;points=[[0,0.5],[1,0.5]];portConstraint=eastwest;top=0;left=0;right=0;bottom=0;" vertex="1" parent="xuCqlQGLWo-v2Zik0cqL-191">
          <mxGeometry y="330" width="330" height="30" as="geometry" />
        </mxCell>
        <mxCell id="xuCqlQGLWo-v2Zik0cqL-237" value="" style="shape=partialRectangle;connectable=0;fillColor=none;top=0;left=0;bottom=0;right=0;editable=1;overflow=hidden;whiteSpace=wrap;html=1;" vertex="1" parent="xuCqlQGLWo-v2Zik0cqL-236">
          <mxGeometry width="30" height="30" as="geometry">
            <mxRectangle width="30" height="30" as="alternateBounds" />
          </mxGeometry>
        </mxCell>
        <mxCell id="xuCqlQGLWo-v2Zik0cqL-238" value="presentAddress" style="shape=partialRectangle;connectable=0;fillColor=none;top=0;left=0;bottom=0;right=0;align=left;spacingLeft=6;overflow=hidden;whiteSpace=wrap;html=1;" vertex="1" parent="xuCqlQGLWo-v2Zik0cqL-236">
          <mxGeometry x="30" width="150" height="30" as="geometry">
            <mxRectangle width="150" height="30" as="alternateBounds" />
          </mxGeometry>
        </mxCell>
        <mxCell id="xuCqlQGLWo-v2Zik0cqL-239" value="String" style="shape=partialRectangle;connectable=0;fillColor=none;top=0;left=0;bottom=0;right=0;align=left;spacingLeft=6;overflow=hidden;whiteSpace=wrap;html=1;" vertex="1" parent="xuCqlQGLWo-v2Zik0cqL-236">
          <mxGeometry x="180" width="150" height="30" as="geometry">
            <mxRectangle width="150" height="30" as="alternateBounds" />
          </mxGeometry>
        </mxCell>
        <mxCell id="xuCqlQGLWo-v2Zik0cqL-240" value="" style="shape=tableRow;horizontal=0;startSize=0;swimlaneHead=0;swimlaneBody=0;fillColor=none;collapsible=0;dropTarget=0;points=[[0,0.5],[1,0.5]];portConstraint=eastwest;top=0;left=0;right=0;bottom=0;" vertex="1" parent="xuCqlQGLWo-v2Zik0cqL-191">
          <mxGeometry y="360" width="330" height="30" as="geometry" />
        </mxCell>
        <mxCell id="xuCqlQGLWo-v2Zik0cqL-241" value="" style="shape=partialRectangle;connectable=0;fillColor=none;top=0;left=0;bottom=0;right=0;editable=1;overflow=hidden;whiteSpace=wrap;html=1;" vertex="1" parent="xuCqlQGLWo-v2Zik0cqL-240">
          <mxGeometry width="30" height="30" as="geometry">
            <mxRectangle width="30" height="30" as="alternateBounds" />
          </mxGeometry>
        </mxCell>
        <mxCell id="xuCqlQGLWo-v2Zik0cqL-242" value="permanentAddress" style="shape=partialRectangle;connectable=0;fillColor=none;top=0;left=0;bottom=0;right=0;align=left;spacingLeft=6;overflow=hidden;whiteSpace=wrap;html=1;" vertex="1" parent="xuCqlQGLWo-v2Zik0cqL-240">
          <mxGeometry x="30" width="150" height="30" as="geometry">
            <mxRectangle width="150" height="30" as="alternateBounds" />
          </mxGeometry>
        </mxCell>
        <mxCell id="xuCqlQGLWo-v2Zik0cqL-243" value="String" style="shape=partialRectangle;connectable=0;fillColor=none;top=0;left=0;bottom=0;right=0;align=left;spacingLeft=6;overflow=hidden;whiteSpace=wrap;html=1;" vertex="1" parent="xuCqlQGLWo-v2Zik0cqL-240">
          <mxGeometry x="180" width="150" height="30" as="geometry">
            <mxRectangle width="150" height="30" as="alternateBounds" />
          </mxGeometry>
        </mxCell>
        <mxCell id="xuCqlQGLWo-v2Zik0cqL-252" value="" style="shape=tableRow;horizontal=0;startSize=0;swimlaneHead=0;swimlaneBody=0;fillColor=none;collapsible=0;dropTarget=0;points=[[0,0.5],[1,0.5]];portConstraint=eastwest;top=0;left=0;right=0;bottom=0;" vertex="1" parent="xuCqlQGLWo-v2Zik0cqL-191">
          <mxGeometry y="390" width="330" height="30" as="geometry" />
        </mxCell>
        <mxCell id="xuCqlQGLWo-v2Zik0cqL-253" value="" style="shape=partialRectangle;connectable=0;fillColor=none;top=0;left=0;bottom=0;right=0;editable=1;overflow=hidden;whiteSpace=wrap;html=1;" vertex="1" parent="xuCqlQGLWo-v2Zik0cqL-252">
          <mxGeometry width="30" height="30" as="geometry">
            <mxRectangle width="30" height="30" as="alternateBounds" />
          </mxGeometry>
        </mxCell>
        <mxCell id="xuCqlQGLWo-v2Zik0cqL-254" value="profileImage" style="shape=partialRectangle;connectable=0;fillColor=none;top=0;left=0;bottom=0;right=0;align=left;spacingLeft=6;overflow=hidden;whiteSpace=wrap;html=1;" vertex="1" parent="xuCqlQGLWo-v2Zik0cqL-252">
          <mxGeometry x="30" width="150" height="30" as="geometry">
            <mxRectangle width="150" height="30" as="alternateBounds" />
          </mxGeometry>
        </mxCell>
        <mxCell id="xuCqlQGLWo-v2Zik0cqL-255" value="String" style="shape=partialRectangle;connectable=0;fillColor=none;top=0;left=0;bottom=0;right=0;align=left;spacingLeft=6;overflow=hidden;whiteSpace=wrap;html=1;" vertex="1" parent="xuCqlQGLWo-v2Zik0cqL-252">
          <mxGeometry x="180" width="150" height="30" as="geometry">
            <mxRectangle width="150" height="30" as="alternateBounds" />
          </mxGeometry>
        </mxCell>
        <mxCell id="xuCqlQGLWo-v2Zik0cqL-256" value="" style="shape=tableRow;horizontal=0;startSize=0;swimlaneHead=0;swimlaneBody=0;fillColor=none;collapsible=0;dropTarget=0;points=[[0,0.5],[1,0.5]];portConstraint=eastwest;top=0;left=0;right=0;bottom=0;" vertex="1" parent="xuCqlQGLWo-v2Zik0cqL-191">
          <mxGeometry y="420" width="330" height="30" as="geometry" />
        </mxCell>
        <mxCell id="xuCqlQGLWo-v2Zik0cqL-257" value="" style="shape=partialRectangle;connectable=0;fillColor=none;top=0;left=0;bottom=0;right=0;editable=1;overflow=hidden;whiteSpace=wrap;html=1;" vertex="1" parent="xuCqlQGLWo-v2Zik0cqL-256">
          <mxGeometry width="30" height="30" as="geometry">
            <mxRectangle width="30" height="30" as="alternateBounds" />
          </mxGeometry>
        </mxCell>
        <mxCell id="xuCqlQGLWo-v2Zik0cqL-258" value="status" style="shape=partialRectangle;connectable=0;fillColor=none;top=0;left=0;bottom=0;right=0;align=left;spacingLeft=6;overflow=hidden;whiteSpace=wrap;html=1;" vertex="1" parent="xuCqlQGLWo-v2Zik0cqL-256">
          <mxGeometry x="30" width="150" height="30" as="geometry">
            <mxRectangle width="150" height="30" as="alternateBounds" />
          </mxGeometry>
        </mxCell>
        <mxCell id="xuCqlQGLWo-v2Zik0cqL-259" value="String" style="shape=partialRectangle;connectable=0;fillColor=none;top=0;left=0;bottom=0;right=0;align=left;spacingLeft=6;overflow=hidden;whiteSpace=wrap;html=1;" vertex="1" parent="xuCqlQGLWo-v2Zik0cqL-256">
          <mxGeometry x="180" width="150" height="30" as="geometry">
            <mxRectangle width="150" height="30" as="alternateBounds" />
          </mxGeometry>
        </mxCell>
        <mxCell id="xuCqlQGLWo-v2Zik0cqL-260" value="" style="shape=tableRow;horizontal=0;startSize=0;swimlaneHead=0;swimlaneBody=0;fillColor=none;collapsible=0;dropTarget=0;points=[[0,0.5],[1,0.5]];portConstraint=eastwest;top=0;left=0;right=0;bottom=0;" vertex="1" parent="xuCqlQGLWo-v2Zik0cqL-191">
          <mxGeometry y="450" width="330" height="30" as="geometry" />
        </mxCell>
        <mxCell id="xuCqlQGLWo-v2Zik0cqL-261" value="" style="shape=partialRectangle;connectable=0;fillColor=none;top=0;left=0;bottom=0;right=0;editable=1;overflow=hidden;whiteSpace=wrap;html=1;" vertex="1" parent="xuCqlQGLWo-v2Zik0cqL-260">
          <mxGeometry width="30" height="30" as="geometry">
            <mxRectangle width="30" height="30" as="alternateBounds" />
          </mxGeometry>
        </mxCell>
        <mxCell id="xuCqlQGLWo-v2Zik0cqL-262" value="managementDepartment" style="shape=partialRectangle;connectable=0;fillColor=none;top=0;left=0;bottom=0;right=0;align=left;spacingLeft=6;overflow=hidden;whiteSpace=wrap;html=1;" vertex="1" parent="xuCqlQGLWo-v2Zik0cqL-260">
          <mxGeometry x="30" width="150" height="30" as="geometry">
            <mxRectangle width="150" height="30" as="alternateBounds" />
          </mxGeometry>
        </mxCell>
        <mxCell id="xuCqlQGLWo-v2Zik0cqL-263" value="ObjectId" style="shape=partialRectangle;connectable=0;fillColor=none;top=0;left=0;bottom=0;right=0;align=left;spacingLeft=6;overflow=hidden;whiteSpace=wrap;html=1;" vertex="1" parent="xuCqlQGLWo-v2Zik0cqL-260">
          <mxGeometry x="180" width="150" height="30" as="geometry">
            <mxRectangle width="150" height="30" as="alternateBounds" />
          </mxGeometry>
        </mxCell>
        <mxCell id="xuCqlQGLWo-v2Zik0cqL-264" value="" style="shape=tableRow;horizontal=0;startSize=0;swimlaneHead=0;swimlaneBody=0;fillColor=none;collapsible=0;dropTarget=0;points=[[0,0.5],[1,0.5]];portConstraint=eastwest;top=0;left=0;right=0;bottom=0;" vertex="1" parent="xuCqlQGLWo-v2Zik0cqL-191">
          <mxGeometry y="480" width="330" height="30" as="geometry" />
        </mxCell>
        <mxCell id="xuCqlQGLWo-v2Zik0cqL-265" value="" style="shape=partialRectangle;connectable=0;fillColor=none;top=0;left=0;bottom=0;right=0;editable=1;overflow=hidden;whiteSpace=wrap;html=1;" vertex="1" parent="xuCqlQGLWo-v2Zik0cqL-264">
          <mxGeometry width="30" height="30" as="geometry">
            <mxRectangle width="30" height="30" as="alternateBounds" />
          </mxGeometry>
        </mxCell>
        <mxCell id="xuCqlQGLWo-v2Zik0cqL-266" value="isDeleted" style="shape=partialRectangle;connectable=0;fillColor=none;top=0;left=0;bottom=0;right=0;align=left;spacingLeft=6;overflow=hidden;whiteSpace=wrap;html=1;" vertex="1" parent="xuCqlQGLWo-v2Zik0cqL-264">
          <mxGeometry x="30" width="150" height="30" as="geometry">
            <mxRectangle width="150" height="30" as="alternateBounds" />
          </mxGeometry>
        </mxCell>
        <mxCell id="xuCqlQGLWo-v2Zik0cqL-267" value="Boolean" style="shape=partialRectangle;connectable=0;fillColor=none;top=0;left=0;bottom=0;right=0;align=left;spacingLeft=6;overflow=hidden;whiteSpace=wrap;html=1;" vertex="1" parent="xuCqlQGLWo-v2Zik0cqL-264">
          <mxGeometry x="180" width="150" height="30" as="geometry">
            <mxRectangle width="150" height="30" as="alternateBounds" />
          </mxGeometry>
        </mxCell>
        <mxCell id="xuCqlQGLWo-v2Zik0cqL-268" value="" style="shape=tableRow;horizontal=0;startSize=0;swimlaneHead=0;swimlaneBody=0;fillColor=none;collapsible=0;dropTarget=0;points=[[0,0.5],[1,0.5]];portConstraint=eastwest;top=0;left=0;right=0;bottom=0;" vertex="1" parent="xuCqlQGLWo-v2Zik0cqL-191">
          <mxGeometry y="510" width="330" height="30" as="geometry" />
        </mxCell>
        <mxCell id="xuCqlQGLWo-v2Zik0cqL-269" value="" style="shape=partialRectangle;connectable=0;fillColor=none;top=0;left=0;bottom=0;right=0;editable=1;overflow=hidden;whiteSpace=wrap;html=1;" vertex="1" parent="xuCqlQGLWo-v2Zik0cqL-268">
          <mxGeometry width="30" height="30" as="geometry">
            <mxRectangle width="30" height="30" as="alternateBounds" />
          </mxGeometry>
        </mxCell>
        <mxCell id="xuCqlQGLWo-v2Zik0cqL-270" value="createdAt" style="shape=partialRectangle;connectable=0;fillColor=none;top=0;left=0;bottom=0;right=0;align=left;spacingLeft=6;overflow=hidden;whiteSpace=wrap;html=1;" vertex="1" parent="xuCqlQGLWo-v2Zik0cqL-268">
          <mxGeometry x="30" width="150" height="30" as="geometry">
            <mxRectangle width="150" height="30" as="alternateBounds" />
          </mxGeometry>
        </mxCell>
        <mxCell id="xuCqlQGLWo-v2Zik0cqL-271" value="Date" style="shape=partialRectangle;connectable=0;fillColor=none;top=0;left=0;bottom=0;right=0;align=left;spacingLeft=6;overflow=hidden;whiteSpace=wrap;html=1;" vertex="1" parent="xuCqlQGLWo-v2Zik0cqL-268">
          <mxGeometry x="180" width="150" height="30" as="geometry">
            <mxRectangle width="150" height="30" as="alternateBounds" />
          </mxGeometry>
        </mxCell>
        <mxCell id="xuCqlQGLWo-v2Zik0cqL-272" value="" style="shape=tableRow;horizontal=0;startSize=0;swimlaneHead=0;swimlaneBody=0;fillColor=none;collapsible=0;dropTarget=0;points=[[0,0.5],[1,0.5]];portConstraint=eastwest;top=0;left=0;right=0;bottom=0;" vertex="1" parent="xuCqlQGLWo-v2Zik0cqL-191">
          <mxGeometry y="540" width="330" height="30" as="geometry" />
        </mxCell>
        <mxCell id="xuCqlQGLWo-v2Zik0cqL-273" value="" style="shape=partialRectangle;connectable=0;fillColor=none;top=0;left=0;bottom=0;right=0;editable=1;overflow=hidden;whiteSpace=wrap;html=1;" vertex="1" parent="xuCqlQGLWo-v2Zik0cqL-272">
          <mxGeometry width="30" height="30" as="geometry">
            <mxRectangle width="30" height="30" as="alternateBounds" />
          </mxGeometry>
        </mxCell>
        <mxCell id="xuCqlQGLWo-v2Zik0cqL-274" value="updatedAt" style="shape=partialRectangle;connectable=0;fillColor=none;top=0;left=0;bottom=0;right=0;align=left;spacingLeft=6;overflow=hidden;whiteSpace=wrap;html=1;" vertex="1" parent="xuCqlQGLWo-v2Zik0cqL-272">
          <mxGeometry x="30" width="150" height="30" as="geometry">
            <mxRectangle width="150" height="30" as="alternateBounds" />
          </mxGeometry>
        </mxCell>
        <mxCell id="xuCqlQGLWo-v2Zik0cqL-275" value="Date" style="shape=partialRectangle;connectable=0;fillColor=none;top=0;left=0;bottom=0;right=0;align=left;spacingLeft=6;overflow=hidden;whiteSpace=wrap;html=1;" vertex="1" parent="xuCqlQGLWo-v2Zik0cqL-272">
          <mxGeometry x="180" width="150" height="30" as="geometry">
            <mxRectangle width="150" height="30" as="alternateBounds" />
          </mxGeometry>
        </mxCell>
        <mxCell id="xuCqlQGLWo-v2Zik0cqL-292" value="User" style="shape=table;startSize=30;container=1;collapsible=1;childLayout=tableLayout;fixedRows=1;rowLines=0;fontStyle=1;align=center;resizeLast=1;html=1;" vertex="1" parent="1">
          <mxGeometry x="440" y="-240" width="330" height="270" as="geometry" />
        </mxCell>
        <mxCell id="xuCqlQGLWo-v2Zik0cqL-293" value="" style="shape=tableRow;horizontal=0;startSize=0;swimlaneHead=0;swimlaneBody=0;fillColor=none;collapsible=0;dropTarget=0;points=[[0,0.5],[1,0.5]];portConstraint=eastwest;top=0;left=0;right=0;bottom=1;" vertex="1" parent="xuCqlQGLWo-v2Zik0cqL-292">
          <mxGeometry y="30" width="330" height="30" as="geometry" />
        </mxCell>
        <mxCell id="xuCqlQGLWo-v2Zik0cqL-294" value="PK" style="shape=partialRectangle;connectable=0;fillColor=none;top=0;left=0;bottom=0;right=0;fontStyle=1;overflow=hidden;whiteSpace=wrap;html=1;" vertex="1" parent="xuCqlQGLWo-v2Zik0cqL-293">
          <mxGeometry width="30" height="30" as="geometry">
            <mxRectangle width="30" height="30" as="alternateBounds" />
          </mxGeometry>
        </mxCell>
        <mxCell id="xuCqlQGLWo-v2Zik0cqL-295" value="_id" style="shape=partialRectangle;connectable=0;fillColor=none;top=0;left=0;bottom=0;right=0;align=left;spacingLeft=6;fontStyle=5;overflow=hidden;whiteSpace=wrap;html=1;" vertex="1" parent="xuCqlQGLWo-v2Zik0cqL-293">
          <mxGeometry x="30" width="150" height="30" as="geometry">
            <mxRectangle width="150" height="30" as="alternateBounds" />
          </mxGeometry>
        </mxCell>
        <mxCell id="xuCqlQGLWo-v2Zik0cqL-296" value="ObjectId" style="shape=partialRectangle;connectable=0;fillColor=none;top=0;left=0;bottom=0;right=0;align=left;spacingLeft=6;fontStyle=5;overflow=hidden;whiteSpace=wrap;html=1;" vertex="1" parent="xuCqlQGLWo-v2Zik0cqL-293">
          <mxGeometry x="180" width="150" height="30" as="geometry">
            <mxRectangle width="150" height="30" as="alternateBounds" />
          </mxGeometry>
        </mxCell>
        <mxCell id="xuCqlQGLWo-v2Zik0cqL-297" value="" style="shape=tableRow;horizontal=0;startSize=0;swimlaneHead=0;swimlaneBody=0;fillColor=none;collapsible=0;dropTarget=0;points=[[0,0.5],[1,0.5]];portConstraint=eastwest;top=0;left=0;right=0;bottom=0;strokeWidth=12;" vertex="1" parent="xuCqlQGLWo-v2Zik0cqL-292">
          <mxGeometry y="60" width="330" height="30" as="geometry" />
        </mxCell>
        <mxCell id="xuCqlQGLWo-v2Zik0cqL-298" value="" style="shape=partialRectangle;connectable=0;fillColor=none;top=0;left=0;bottom=0;right=0;editable=1;overflow=hidden;whiteSpace=wrap;html=1;" vertex="1" parent="xuCqlQGLWo-v2Zik0cqL-297">
          <mxGeometry width="30" height="30" as="geometry">
            <mxRectangle width="30" height="30" as="alternateBounds" />
          </mxGeometry>
        </mxCell>
        <mxCell id="xuCqlQGLWo-v2Zik0cqL-299" value="id :" style="shape=partialRectangle;connectable=0;fillColor=none;top=0;left=0;bottom=0;right=0;align=left;spacingLeft=6;overflow=hidden;whiteSpace=wrap;html=1;" vertex="1" parent="xuCqlQGLWo-v2Zik0cqL-297">
          <mxGeometry x="30" width="150" height="30" as="geometry">
            <mxRectangle width="150" height="30" as="alternateBounds" />
          </mxGeometry>
        </mxCell>
        <mxCell id="xuCqlQGLWo-v2Zik0cqL-300" value="String" style="shape=partialRectangle;connectable=0;fillColor=none;top=0;left=0;bottom=0;right=0;align=left;spacingLeft=6;overflow=hidden;whiteSpace=wrap;html=1;" vertex="1" parent="xuCqlQGLWo-v2Zik0cqL-297">
          <mxGeometry x="180" width="150" height="30" as="geometry">
            <mxRectangle width="150" height="30" as="alternateBounds" />
          </mxGeometry>
        </mxCell>
        <mxCell id="xuCqlQGLWo-v2Zik0cqL-301" value="" style="shape=tableRow;horizontal=0;startSize=0;swimlaneHead=0;swimlaneBody=0;fillColor=none;collapsible=0;dropTarget=0;points=[[0,0.5],[1,0.5]];portConstraint=eastwest;top=0;left=0;right=0;bottom=0;" vertex="1" parent="xuCqlQGLWo-v2Zik0cqL-292">
          <mxGeometry y="90" width="330" height="30" as="geometry" />
        </mxCell>
        <mxCell id="xuCqlQGLWo-v2Zik0cqL-302" value="" style="shape=partialRectangle;connectable=0;fillColor=none;top=0;left=0;bottom=0;right=0;editable=1;overflow=hidden;whiteSpace=wrap;html=1;" vertex="1" parent="xuCqlQGLWo-v2Zik0cqL-301">
          <mxGeometry width="30" height="30" as="geometry">
            <mxRectangle width="30" height="30" as="alternateBounds" />
          </mxGeometry>
        </mxCell>
        <mxCell id="xuCqlQGLWo-v2Zik0cqL-303" value="password&amp;nbsp;" style="shape=partialRectangle;connectable=0;fillColor=none;top=0;left=0;bottom=0;right=0;align=left;spacingLeft=6;overflow=hidden;whiteSpace=wrap;html=1;" vertex="1" parent="xuCqlQGLWo-v2Zik0cqL-301">
          <mxGeometry x="30" width="150" height="30" as="geometry">
            <mxRectangle width="150" height="30" as="alternateBounds" />
          </mxGeometry>
        </mxCell>
        <mxCell id="xuCqlQGLWo-v2Zik0cqL-304" value="String" style="shape=partialRectangle;connectable=0;fillColor=none;top=0;left=0;bottom=0;right=0;align=left;spacingLeft=6;overflow=hidden;whiteSpace=wrap;html=1;" vertex="1" parent="xuCqlQGLWo-v2Zik0cqL-301">
          <mxGeometry x="180" width="150" height="30" as="geometry">
            <mxRectangle width="150" height="30" as="alternateBounds" />
          </mxGeometry>
        </mxCell>
        <mxCell id="xuCqlQGLWo-v2Zik0cqL-305" value="" style="shape=tableRow;horizontal=0;startSize=0;swimlaneHead=0;swimlaneBody=0;fillColor=none;collapsible=0;dropTarget=0;points=[[0,0.5],[1,0.5]];portConstraint=eastwest;top=0;left=0;right=0;bottom=0;" vertex="1" parent="xuCqlQGLWo-v2Zik0cqL-292">
          <mxGeometry y="120" width="330" height="30" as="geometry" />
        </mxCell>
        <mxCell id="xuCqlQGLWo-v2Zik0cqL-306" value="" style="shape=partialRectangle;connectable=0;fillColor=none;top=0;left=0;bottom=0;right=0;editable=1;overflow=hidden;whiteSpace=wrap;html=1;" vertex="1" parent="xuCqlQGLWo-v2Zik0cqL-305">
          <mxGeometry width="30" height="30" as="geometry">
            <mxRectangle width="30" height="30" as="alternateBounds" />
          </mxGeometry>
        </mxCell>
        <mxCell id="xuCqlQGLWo-v2Zik0cqL-307" value="needsPasswordChange" style="shape=partialRectangle;connectable=0;fillColor=none;top=0;left=0;bottom=0;right=0;align=left;spacingLeft=6;overflow=hidden;whiteSpace=wrap;html=1;" vertex="1" parent="xuCqlQGLWo-v2Zik0cqL-305">
          <mxGeometry x="30" width="150" height="30" as="geometry">
            <mxRectangle width="150" height="30" as="alternateBounds" />
          </mxGeometry>
        </mxCell>
        <mxCell id="xuCqlQGLWo-v2Zik0cqL-308" value="Bollean" style="shape=partialRectangle;connectable=0;fillColor=none;top=0;left=0;bottom=0;right=0;align=left;spacingLeft=6;overflow=hidden;whiteSpace=wrap;html=1;" vertex="1" parent="xuCqlQGLWo-v2Zik0cqL-305">
          <mxGeometry x="180" width="150" height="30" as="geometry">
            <mxRectangle width="150" height="30" as="alternateBounds" />
          </mxGeometry>
        </mxCell>
        <mxCell id="xuCqlQGLWo-v2Zik0cqL-309" value="" style="shape=tableRow;horizontal=0;startSize=0;swimlaneHead=0;swimlaneBody=0;fillColor=none;collapsible=0;dropTarget=0;points=[[0,0.5],[1,0.5]];portConstraint=eastwest;top=0;left=0;right=0;bottom=0;flipH=0;" vertex="1" parent="xuCqlQGLWo-v2Zik0cqL-292">
          <mxGeometry y="150" width="330" height="30" as="geometry" />
        </mxCell>
        <mxCell id="xuCqlQGLWo-v2Zik0cqL-310" value="" style="shape=partialRectangle;connectable=0;fillColor=none;top=0;left=0;bottom=0;right=0;editable=1;overflow=hidden;whiteSpace=wrap;html=1;" vertex="1" parent="xuCqlQGLWo-v2Zik0cqL-309">
          <mxGeometry width="30" height="30" as="geometry">
            <mxRectangle width="30" height="30" as="alternateBounds" />
          </mxGeometry>
        </mxCell>
        <mxCell id="xuCqlQGLWo-v2Zik0cqL-311" value="role" style="shape=partialRectangle;connectable=0;fillColor=none;top=0;left=0;bottom=0;right=0;align=left;spacingLeft=6;overflow=hidden;whiteSpace=wrap;html=1;" vertex="1" parent="xuCqlQGLWo-v2Zik0cqL-309">
          <mxGeometry x="30" width="150" height="30" as="geometry">
            <mxRectangle width="150" height="30" as="alternateBounds" />
          </mxGeometry>
        </mxCell>
        <mxCell id="xuCqlQGLWo-v2Zik0cqL-312" value="String&lt;div&gt;&lt;br&gt;&lt;/div&gt;" style="shape=partialRectangle;connectable=0;fillColor=none;top=0;left=0;bottom=0;right=0;align=left;spacingLeft=6;overflow=hidden;whiteSpace=wrap;html=1;" vertex="1" parent="xuCqlQGLWo-v2Zik0cqL-309">
          <mxGeometry x="180" width="150" height="30" as="geometry">
            <mxRectangle width="150" height="30" as="alternateBounds" />
          </mxGeometry>
        </mxCell>
        <mxCell id="xuCqlQGLWo-v2Zik0cqL-369" value="" style="shape=tableRow;horizontal=0;startSize=0;swimlaneHead=0;swimlaneBody=0;fillColor=none;collapsible=0;dropTarget=0;points=[[0,0.5],[1,0.5]];portConstraint=eastwest;top=0;left=0;right=0;bottom=0;" vertex="1" parent="xuCqlQGLWo-v2Zik0cqL-292">
          <mxGeometry y="180" width="330" height="30" as="geometry" />
        </mxCell>
        <mxCell id="xuCqlQGLWo-v2Zik0cqL-370" value="" style="shape=partialRectangle;connectable=0;fillColor=none;top=0;left=0;bottom=0;right=0;editable=1;overflow=hidden;whiteSpace=wrap;html=1;" vertex="1" parent="xuCqlQGLWo-v2Zik0cqL-369">
          <mxGeometry width="30" height="30" as="geometry">
            <mxRectangle width="30" height="30" as="alternateBounds" />
          </mxGeometry>
        </mxCell>
        <mxCell id="xuCqlQGLWo-v2Zik0cqL-371" value="createdAt" style="shape=partialRectangle;connectable=0;fillColor=none;top=0;left=0;bottom=0;right=0;align=left;spacingLeft=6;overflow=hidden;whiteSpace=wrap;html=1;" vertex="1" parent="xuCqlQGLWo-v2Zik0cqL-369">
          <mxGeometry x="30" width="150" height="30" as="geometry">
            <mxRectangle width="150" height="30" as="alternateBounds" />
          </mxGeometry>
        </mxCell>
        <mxCell id="xuCqlQGLWo-v2Zik0cqL-372" value="Date" style="shape=partialRectangle;connectable=0;fillColor=none;top=0;left=0;bottom=0;right=0;align=left;spacingLeft=6;overflow=hidden;whiteSpace=wrap;html=1;" vertex="1" parent="xuCqlQGLWo-v2Zik0cqL-369">
          <mxGeometry x="180" width="150" height="30" as="geometry">
            <mxRectangle width="150" height="30" as="alternateBounds" />
          </mxGeometry>
        </mxCell>
        <mxCell id="xuCqlQGLWo-v2Zik0cqL-373" value="" style="shape=tableRow;horizontal=0;startSize=0;swimlaneHead=0;swimlaneBody=0;fillColor=none;collapsible=0;dropTarget=0;points=[[0,0.5],[1,0.5]];portConstraint=eastwest;top=0;left=0;right=0;bottom=0;" vertex="1" parent="xuCqlQGLWo-v2Zik0cqL-292">
          <mxGeometry y="210" width="330" height="30" as="geometry" />
        </mxCell>
        <mxCell id="xuCqlQGLWo-v2Zik0cqL-374" value="" style="shape=partialRectangle;connectable=0;fillColor=none;top=0;left=0;bottom=0;right=0;editable=1;overflow=hidden;whiteSpace=wrap;html=1;" vertex="1" parent="xuCqlQGLWo-v2Zik0cqL-373">
          <mxGeometry width="30" height="30" as="geometry">
            <mxRectangle width="30" height="30" as="alternateBounds" />
          </mxGeometry>
        </mxCell>
        <mxCell id="xuCqlQGLWo-v2Zik0cqL-375" value="updatedAt" style="shape=partialRectangle;connectable=0;fillColor=none;top=0;left=0;bottom=0;right=0;align=left;spacingLeft=6;overflow=hidden;whiteSpace=wrap;html=1;" vertex="1" parent="xuCqlQGLWo-v2Zik0cqL-373">
          <mxGeometry x="30" width="150" height="30" as="geometry">
            <mxRectangle width="150" height="30" as="alternateBounds" />
          </mxGeometry>
        </mxCell>
        <mxCell id="xuCqlQGLWo-v2Zik0cqL-376" value="Date" style="shape=partialRectangle;connectable=0;fillColor=none;top=0;left=0;bottom=0;right=0;align=left;spacingLeft=6;overflow=hidden;whiteSpace=wrap;html=1;" vertex="1" parent="xuCqlQGLWo-v2Zik0cqL-373">
          <mxGeometry x="180" width="150" height="30" as="geometry">
            <mxRectangle width="150" height="30" as="alternateBounds" />
          </mxGeometry>
        </mxCell>
        <mxCell id="xuCqlQGLWo-v2Zik0cqL-386" value="" style="shape=tableRow;horizontal=0;startSize=0;swimlaneHead=0;swimlaneBody=0;fillColor=none;collapsible=0;dropTarget=0;points=[[0,0.5],[1,0.5]];portConstraint=eastwest;top=0;left=0;right=0;bottom=0;flipH=0;" vertex="1" parent="xuCqlQGLWo-v2Zik0cqL-292">
          <mxGeometry y="240" width="330" height="30" as="geometry" />
        </mxCell>
        <mxCell id="xuCqlQGLWo-v2Zik0cqL-387" value="" style="shape=partialRectangle;connectable=0;fillColor=none;top=0;left=0;bottom=0;right=0;editable=1;overflow=hidden;whiteSpace=wrap;html=1;" vertex="1" parent="xuCqlQGLWo-v2Zik0cqL-386">
          <mxGeometry width="30" height="30" as="geometry">
            <mxRectangle width="30" height="30" as="alternateBounds" />
          </mxGeometry>
        </mxCell>
        <mxCell id="xuCqlQGLWo-v2Zik0cqL-388" value="IsDeleted" style="shape=partialRectangle;connectable=0;fillColor=none;top=0;left=0;bottom=0;right=0;align=left;spacingLeft=6;overflow=hidden;whiteSpace=wrap;html=1;" vertex="1" parent="xuCqlQGLWo-v2Zik0cqL-386">
          <mxGeometry x="30" width="150" height="30" as="geometry">
            <mxRectangle width="150" height="30" as="alternateBounds" />
          </mxGeometry>
        </mxCell>
        <mxCell id="xuCqlQGLWo-v2Zik0cqL-389" value="&lt;div&gt;Boolean&lt;/div&gt;" style="shape=partialRectangle;connectable=0;fillColor=none;top=0;left=0;bottom=0;right=0;align=left;spacingLeft=6;overflow=hidden;whiteSpace=wrap;html=1;" vertex="1" parent="xuCqlQGLWo-v2Zik0cqL-386">
          <mxGeometry x="180" width="150" height="30" as="geometry">
            <mxRectangle width="150" height="30" as="alternateBounds" />
          </mxGeometry>
        </mxCell>
        <mxCell id="xuCqlQGLWo-v2Zik0cqL-383" value="" style="edgeStyle=orthogonalEdgeStyle;fontSize=12;html=1;endArrow=ERmandOne;startArrow=ERmandOne;rounded=0;fontFamily=Helvetica;fontColor=default;entryX=0;entryY=0.5;entryDx=0;entryDy=0;curved=1;exitX=0;exitY=0.5;exitDx=0;exitDy=0;" edge="1" parent="1" source="xuCqlQGLWo-v2Zik0cqL-115" target="xuCqlQGLWo-v2Zik0cqL-293">
          <mxGeometry width="100" height="100" relative="1" as="geometry">
            <mxPoint x="390" y="140" as="sourcePoint" />
            <mxPoint x="410" y="-120" as="targetPoint" />
            <Array as="points">
              <mxPoint x="380" y="145" />
              <mxPoint x="380" y="-165" />
              <mxPoint x="390" y="-165" />
              <mxPoint x="390" y="-180" />
              <mxPoint x="440" y="-180" />
            </Array>
          </mxGeometry>
        </mxCell>
        <mxCell id="xuCqlQGLWo-v2Zik0cqL-384" value="" style="edgeStyle=orthogonalEdgeStyle;fontSize=12;html=1;endArrow=ERmandOne;startArrow=ERmandOne;rounded=0;fontFamily=Helvetica;fontColor=default;entryX=-0.011;entryY=0.213;entryDx=0;entryDy=0;curved=1;exitX=0;exitY=0.5;exitDx=0;exitDy=0;entryPerimeter=0;" edge="1" parent="1" source="xuCqlQGLWo-v2Zik0cqL-200" target="xuCqlQGLWo-v2Zik0cqL-293">
          <mxGeometry width="100" height="100" relative="1" as="geometry">
            <mxPoint x="450" y="155" as="sourcePoint" />
            <mxPoint x="450" y="-185" as="targetPoint" />
            <Array as="points">
              <mxPoint x="820" y="-290" />
              <mxPoint x="390" y="-290" />
              <mxPoint x="390" y="-204" />
            </Array>
          </mxGeometry>
        </mxCell>
        <mxCell id="xuCqlQGLWo-v2Zik0cqL-385" value="" style="edgeStyle=orthogonalEdgeStyle;fontSize=12;html=1;endArrow=ERmandOne;startArrow=ERmandOne;rounded=0;fontFamily=Helvetica;fontColor=default;curved=1;exitX=1;exitY=0.5;exitDx=0;exitDy=0;" edge="1" parent="1" source="xuCqlQGLWo-v2Zik0cqL-8">
          <mxGeometry width="100" height="100" relative="1" as="geometry">
            <mxPoint x="830" y="-165" as="sourcePoint" />
            <mxPoint x="440" y="-200" as="targetPoint" />
            <Array as="points">
              <mxPoint x="370" y="-175" />
              <mxPoint x="370" y="-200" />
              <mxPoint x="400" y="-200" />
              <mxPoint x="400" y="-194" />
            </Array>
          </mxGeometry>
        </mxCell>
      </root>
    </mxGraphModel>
  </diagram>
</mxfile>
